<svg xmlns="http://www.w3.org/2000/svg" width="48" height="48" viewBox="0 0 48 48">
    <defs>
        <linearGradient id="a" x1="0%" y1="40.644%" y2="59.356%">
            <stop offset="0%" stop-color="#60F"/>
            <stop offset="100%" stop-color="#95E"/>
        </linearGradient>
    </defs>
    <g fill="currentColor" fill-rule="evenodd">
        <path fill="#161A1D" d="M43.75 17.75h-38V41c0 .69.56 1.25 1.25 1.25h34c.69 0 1.25-.56 1.25-1.25V21.75h1.5V41A2.75 2.75 0 0 1 41 43.75H7A2.75 2.75 0 0 1 4.25 41V7A2.75 2.75 0 0 1 7 4.25h34A2.75 2.75 0 0 1 43.75 7v10.75zm-1.5-1.5V7c0-.69-.56-1.25-1.25-1.25H7c-.69 0-1.25.56-1.25 1.25v9.25h36.5zm-24.558-6.015v1.5H10v-1.5h7.692zM37.108 12.2a1.2 1.2 0 1 1 0-2.4 1.2 1.2 0 0 1 0 2.4zm-4.093 0a1.2 1.2 0 1 1 0-2.4 1.2 1.2 0 0 1 0 2.4z"/>
        <path fill="url(#a)" d="M29.491 27.917l-1.407.52c-.83-2.247-3.3-3.461-5.505-2.718l-.479-1.421c2.98-1.005 6.282.617 7.391 3.619zm-7.703-.115l-1.414.5a4.492 4.492 0 1 0-4.236 5.99h15.725a4.492 4.492 0 1 0-1.497-8.729l-.5-1.414a5.992 5.992 0 1 1 1.998 11.643H16.138a5.992 5.992 0 1 1 5.65-7.99z"/>
    </g>
</svg>
