<svg xmlns="http://www.w3.org/2000/svg" width="48" height="48" viewBox="0 0 48 48">
    <defs>
        <linearGradient id="a" x1="0%" y1="0%" y2="100%">
            <stop offset="0%" stop-color="#60F"/>
            <stop offset="100%" stop-color="#95E"/>
        </linearGradient>
    </defs>
    <g fill="none" fill-rule="evenodd">
        <path fill="currentColor" d="M37.235 8.179L31.935 40h.015v4h-1.5v-4H5.55v4h-1.5v-4h.015l.145-.873L9.63 6.563a2.754 2.754 0 0 1 2.712-2.313h23.4c1.325 0 2.461.948 2.706 2.256L43.965 36h-.015v4h-1.5v-4h-8.275l.25-1.5h7.733L37.235 8.179zM34.64 5.75H12.342c-.61 0-1.132.446-1.233 1.058L5.835 38.5h24.83l5.208-31.277A1.257 1.257 0 0 0 34.64 5.75z"/>
        <path fill="currentColor" d="M17.797 21.687c.284.073.564.175.838.305l.677.324-.647 1.353-.676-.323a3.133 3.133 0 1 0 .864 5.043l8.237-8.236a3.133 3.133 0 0 0-3.515-5.066 3.112 3.112 0 0 0-1.51 1.458l-.413 1.014c.41.063.817.18 1.21.356l.685.306-.613 1.37-.684-.307c-1.51-.675-3.317-.077-3.997 1.247l-.456 1.156zm-1.56-.13l.65-1.642c.633-1.24 1.813-2.056 3.13-2.318l.044-.106.632-1.552a4.631 4.631 0 0 1 4.344-2.63 4.633 4.633 0 0 1 3.114 7.904l-8.237 8.237a4.633 4.633 0 1 1-3.678-7.892z"/>
    </g>
</svg>
