<svg xmlns="http://www.w3.org/2000/svg" width="48" height="48" viewBox="0 0 48 48">
    <defs>
        <linearGradient id="a" x1="0%" y1="40.218%" y2="59.782%">
            <stop offset="0%" stop-color="#60F"/>
            <stop offset="100%" stop-color="#95E"/>
        </linearGradient>
    </defs>
    <g fill="none" fill-rule="evenodd">
        <path fill="#161a1d" d="M4.29 34.5a4.001 4.001 0 0 1 7.42 0H14V36h-2a4 4 0 1 1-8 0H2V24a2 2 0 0 1 2-2h25v-6.5h-1V14h2c0-3.06 2.29-5.585 5.25-5.954V6h1.5v2.046A6.001 6.001 0 0 1 42 14h2v1.5h-1V22h1a2 2 0 0 1 2 2v12h-1.5V24a.5.5 0 0 0-.5-.5H15.75V27h-1.5v-3.5h-4.5V29h-1.5v-5.5H4a.5.5 0 0 0-.5.5v10.5h.79zM31.5 14h9a4.5 4.5 0 1 0-9 0zm-1 1.5V22h11v-6.5h-11zM8 38.5a2.5 2.5 0 1 0 0-5 2.5 2.5 0 0 0 0 5zm8-23V14h8v1.5h-8zm-12 0V14h8v1.5H4zm12 4V18h8v1.5h-8zm-12 0V18h8v1.5H4z"/>
        <path fill="url(#linearColor)" d="M39.75 36v6h-1.5v-6H36v-1.5h6V36h-2.25zm-20 0v6h-1.5v-6H16v-1.5h6V36h-2.25zm10-4v10h-1.5V32H22v-1.5h14V32h-6.25z"/>
    </g>
</svg>
