<svg xmlns="http://www.w3.org/2000/svg" width="48" height="48" viewBox="0 0 48 48">
    <defs>
        <linearGradient id="a" x1="0%" y1="31.758%" y2="68.242%">
            <stop offset="0%" stop-color="#60F"/>
            <stop offset="100%" stop-color="#95E"/>
        </linearGradient>
    </defs>
    <g fill="none" fill-rule="evenodd">
        <path fill="var(--color1)" d="M31.65 24h-1.5v-8.385a4.507 4.507 0 0 1-2.65-1.877 4.496 4.496 0 0 1-3.75 2.012c-1.565 0-2.944-.8-3.75-2.012a4.496 4.496 0 0 1-3.75 2.012c-1.565 0-2.944-.8-3.75-2.012a4.504 4.504 0 0 1-2.85 1.922v10.59H16v1.5H7c-.69 0-1.25.56-1.25 1.25v9.25H18v1.5H4.25V29A2.75 2.75 0 0 1 7 26.25h1.15V15.71a4.5 4.5 0 0 1-3.9-4.46V7A2.75 2.75 0 0 1 7 4.25h26A2.75 2.75 0 0 1 35.75 7v4.25a4.5 4.5 0 0 1-4.1 4.482V24zm0-9.776a3 3 0 0 0 2.6-2.974V7c0-.69-.56-1.25-1.25-1.25H7c-.69 0-1.25.56-1.25 1.25v4.25a3 3 0 0 0 2.452 2.95c.256.033.447.05.573.05.118 0 .292-.017.523-.05a3 3 0 0 0 2.452-2.95h1.5a3 3 0 0 0 6 0h1.5a3 3 0 0 0 6 0h1.5a3 3 0 0 0 3.4 2.974z"/>
        <path fill="var(--color2)" d="M36.5 35.522l1.5-.503V41.6c-3.191 1.6-6.258 2.4-9.2 2.4-2.942 0-5.875-.8-8.8-2.4v-6.648l1.5.503v5.235c2.447 1.211 4.876 1.81 7.3 1.81 2.446 0 5.01-.61 7.7-1.843v-5.135zm5.25-3.767V38h-1.5v-5.742L29.1 36l-14.9-5 14.9-5L44 31l-2.25.755zM29.1 27.582L18.915 31 29.1 34.418 39.285 31 29.1 27.582z"/>
    </g>
</svg>
