<svg xmlns="http://www.w3.org/2000/svg" width="48" height="48" viewBox="0 0 48 48">
    <defs>
        <linearGradient id="a" x1="0%" y1="39.788%" y2="60.212%">
            <stop offset="0%" stop-color="#60F"/>
            <stop offset="100%" stop-color="#95E"/>
        </linearGradient>
    </defs>
    <g fill="none" fill-rule="evenodd">
        <path fill="#161a1d" d="M21.75 28h-1.5v-3c0-.69-.56-1.25-1.25-1.25H5c-.69 0-1.25.56-1.25 1.25v5.25H15v1.5H2.25V25A2.75 2.75 0 0 1 5 22.25h.25v-6.575a3.751 3.751 0 0 1-3-3.675V9A2.75 2.75 0 0 1 5 6.25h14A2.75 2.75 0 0 1 21.75 9v3a3.751 3.751 0 0 1-3 3.675v6.575H19A2.75 2.75 0 0 1 21.75 25v3zM33 31.75v-1.5h11.25V25c0-.69-.56-1.25-1.25-1.25H29c-.69 0-1.25.56-1.25 1.25v3h-1.5v-3A2.75 2.75 0 0 1 29 22.25h.25v-6.575a3.751 3.751 0 0 1-3-3.675V9A2.75 2.75 0 0 1 29 6.25h14A2.75 2.75 0 0 1 45.75 9v3a3.751 3.751 0 0 1-3 3.675v6.575H43A2.75 2.75 0 0 1 45.75 25v6.75H33zM20.25 12V9c0-.69-.56-1.25-1.25-1.25H5c-.69 0-1.25.56-1.25 1.25v3a2.25 2.25 0 0 0 1.776 2.2c.2.033.35.05.455.05.106 0 .27-.017.493-.05A2.25 2.25 0 0 0 8.25 12h1.5a2.25 2.25 0 1 0 4.5 0h1.5a2.25 2.25 0 0 0 1.776 2.2c.205.033.36.05.465.05.105 0 .266-.017.483-.05A2.25 2.25 0 0 0 20.25 12zm-3 3.675A3.75 3.75 0 0 1 15 14.25a3.744 3.744 0 0 1-3 1.5 3.744 3.744 0 0 1-3-1.5 3.75 3.75 0 0 1-2.25 1.425v6.575h10.5v-6.575zm27-3.675V9c0-.69-.56-1.25-1.25-1.25H29c-.69 0-1.25.56-1.25 1.25v3a2.25 2.25 0 0 0 1.776 2.2c.208.033.364.05.47.05.105 0 .264-.017.478-.05A2.25 2.25 0 0 0 32.25 12h1.5a2.25 2.25 0 1 0 4.5 0h1.5a2.25 2.25 0 0 0 1.776 2.2c.217.033.379.05.486.05.103 0 .258-.017.462-.05A2.25 2.25 0 0 0 44.25 12zm-3 3.675A3.75 3.75 0 0 1 39 14.25a3.744 3.744 0 0 1-3 1.5 3.744 3.744 0 0 1-3-1.5 3.75 3.75 0 0 1-2.25 1.425v6.575h10.5v-6.575z"/>
        <path fill="url(#linearColor)" d="M34.75 35.75V42h-1.5v-6.25H31v-1.5h6v1.5h-2.25zm-20 0V42h-1.5v-6.25H11v-1.5h6v1.5h-2.25zm10-4V42h-1.5V31.75H17v-1.5h14v1.5h-6.25z"/>
    </g>
</svg>
