<svg xmlns="http://www.w3.org/2000/svg" width="48" height="48" viewBox="0 0 48 48">
    <defs>
        <linearGradient id="a" x1="0%" y1="20.007%" y2="79.993%">
            <stop offset="0%" stop-color="#60F"/>
            <stop offset="100%" stop-color="#95E"/>
        </linearGradient>
    </defs>
    <g fill="none" fill-rule="evenodd">
        <path fill="currentColor" d="M31.65 21.8h-1.5v-6.185a4.507 4.507 0 0 1-2.65-1.877 4.496 4.496 0 0 1-3.75 2.012c-1.565 0-2.944-.8-3.75-2.012a4.496 4.496 0 0 1-3.75 2.012c-1.565 0-2.944-.8-3.75-2.012a4.504 4.504 0 0 1-2.85 1.922v10.59H22v1.5H7c-.69 0-1.25.56-1.25 1.25v9.25H16v1.5H4.25V29A2.75 2.75 0 0 1 7 26.25h1.15V15.71a4.5 4.5 0 0 1-3.9-4.46V7A2.75 2.75 0 0 1 7 4.25h26A2.75 2.75 0 0 1 35.75 7v4.25a4.5 4.5 0 0 1-4.1 4.482V21.8zm2.6-10.55V7c0-.69-.56-1.25-1.25-1.25H7c-.69 0-1.25.56-1.25 1.25v4.25a3 3 0 0 0 2.452 2.95c.237.033.416.05.536.05.124 0 .31-.017.56-.05a3 3 0 0 0 2.452-2.95h1.5a3 3 0 0 0 6 0h1.5a3 3 0 0 0 6 0h1.5a3 3 0 0 0 6 0z"/>
        <path fill="currentColor" d="M27.7 26.08V25a1 1 0 0 1 1-1h5a1 1 0 0 1 1 1v1.208c4.536 1.54 7.8 5.835 7.8 10.892 0 .407-.021.81-.062 1.205A1.75 1.75 0 0 1 43.75 40v2A1.75 1.75 0 0 1 42 43.75H20A1.75 1.75 0 0 1 18.25 42v-2c0-.815.558-1.5 1.312-1.695A11.633 11.633 0 0 1 19.5 37.1c0-5.204 3.457-9.601 8.2-11.02zm0 1.577C23.799 29.021 21 32.733 21 37.1c0 .387.022.77.065 1.15h19.87A10.003 10.003 0 0 0 34.7 27.807V35h-1.5v-9.5h-4V35h-1.5v-7.343zm14.476 12.165A.25.25 0 0 0 42 39.75H20a.25.25 0 0 0-.25.25v2c0 .138.112.25.25.25h22a.25.25 0 0 0 .25-.25v-2a.25.25 0 0 0-.074-.178z"/>
    </g>
</svg>
