<svg xmlns="http://www.w3.org/2000/svg" width="48" height="48" viewBox="0 0 48 48">
    <defs>
        <linearGradient id="a" x1="0%" y1="39.788%" y2="60.212%">
            <stop offset="0%" stop-color="#60F"/>
            <stop offset="100%" stop-color="#95E"/>
        </linearGradient>
    </defs>
    <g fill="none" fill-rule="evenodd">
        <path fill="#161A1D" d="M39 35.75v-1.5h5.25V25c0-.69-.56-1.25-1.25-1.25H5c-.69 0-1.25.56-1.25 1.25v9.25H9v1.5H2.25V25A2.75 2.75 0 0 1 5 22.25h3V15.5H7V14h2c0-3.06 2.29-5.585 5.25-5.954V6h1.5v2.046A6.001 6.001 0 0 1 21 14h2v1.5h-1v6.75h4V15.5h-1V14h2c0-3.06 2.29-5.585 5.25-5.954V6h1.5v2.046A6.001 6.001 0 0 1 39 14h2v1.5h-1v6.75h3A2.75 2.75 0 0 1 45.75 25v10.75H39zm-11.5-13.5h11V15.5h-11v6.75zm1-8.25h9a4.5 4.5 0 1 0-9 0zm-19 1.5v6.75h11V15.5h-11zm1-1.5h9a4.5 4.5 0 1 0-9 0z"/>
        <path fill="url(#a)" d="M34.75 35.75V42h-1.5v-6.25H31v-1.5h6v1.5h-2.25zm-20 0V42h-1.5v-6.25H11v-1.5h6v1.5h-2.25zm10-4V42h-1.5V31.75H17v-1.5h14v1.5h-6.25z"/>
    </g>
</svg>
