<svg xmlns="http://www.w3.org/2000/svg" width="48" height="48" viewBox="0 0 48 48">
    <defs>
        <linearGradient id="a" x1="0%" y1="41.11%" y2="58.89%">
            <stop offset="0%" stop-color="#60F"/>
            <stop offset="100%" stop-color="#95E"/>
        </linearGradient>
    </defs>
    <g fill="currentColor" fill-rule="evenodd">
        <path fill="#161A1D" d="M35.75 29.2h-1.5V29c0-.69-.56-1.25-1.25-1.25H7c-.69 0-1.25.56-1.25 1.25v9.25H14v1.5H4.25V29A2.75 2.75 0 0 1 7 26.25h1.15V15.71a4.5 4.5 0 0 1-3.9-4.46V7A2.75 2.75 0 0 1 7 4.25h26A2.75 2.75 0 0 1 35.75 7v4.25a4.5 4.5 0 0 1-4.1 4.482V26.25H33A2.75 2.75 0 0 1 35.75 29v.2zm-1.5-17.95V7c0-.69-.56-1.25-1.25-1.25H7c-.69 0-1.25.56-1.25 1.25v4.25a3 3 0 0 0 2.452 2.95c.258.033.45.05.577.05.117 0 .29-.017.52-.05a3 3 0 0 0 2.451-2.95h1.5a3 3 0 0 0 6 0h1.5a3 3 0 0 0 6 0h1.5a3 3 0 0 0 6 0zm-4.1 4.365a4.507 4.507 0 0 1-2.65-1.877 4.496 4.496 0 0 1-3.75 2.012c-1.565 0-2.944-.8-3.75-2.012a4.496 4.496 0 0 1-3.75 2.012c-1.565 0-2.944-.8-3.75-2.012a4.504 4.504 0 0 1-2.85 1.922v10.59h20.5V15.615z"/>
        <path fill="url(#a)" d="M35.75 37.85V44h-1.5v-6.15H32v-1.5h6v1.5h-2.25zm-18-3V41h-1.5v-6.15H14v-1.5h6v1.5h-2.25zm24 0V41h-1.5v-6.15H38v-1.5h6v1.5h-2.25zm-18 3V44h-1.5v-6.15H20v-1.5h6v1.5h-2.25zm6-5V43h-1.5V32.85H22v-1.5h14v1.5h-6.25z"/>
    </g>
</svg>
