<svg xmlns="http://www.w3.org/2000/svg" width="48" height="48" viewBox="0 0 48 48">
    <defs>
        <linearGradient id="a" x1="0%" y1="39.343%" y2="60.657%">
            <stop offset="0%" stop-color="#60F"/>
            <stop offset="100%" stop-color="#95E"/>
        </linearGradient>
    </defs>
    <g fill="currentColor" fill-rule="evenodd">
        <path fill="#161A1D" d="M11.75 10.25h24.5V6.82c0-.73-.56-1.32-1.25-1.32H13c-.69 0-1.25.59-1.25 1.32v3.43zm26 .411l5.75 3.653v2.995a4.81 4.81 0 0 1-4.809 4.812 4.811 4.811 0 0 1-4.57-3.312h-.653a4.811 4.811 0 0 1-9.142 0h-.652a4.811 4.811 0 0 1-9.142 0h-.653A4.812 4.812 0 0 1 9.5 22.117V43.75H8V21.94a4.814 4.814 0 0 1-3.5-4.631v-2.995l5.75-3.653V6.75A2.75 2.75 0 0 1 13 4h22a2.75 2.75 0 0 1 2.75 2.75v3.911zM6 17.31a3.31 3.31 0 0 0 3.309 3.312 3.31 3.31 0 0 0 3.309-3.312h3.176a3.31 3.31 0 0 0 3.309 3.312 3.31 3.31 0 0 0 3.309-3.312h3.176a3.31 3.31 0 0 0 3.31 3.312 3.31 3.31 0 0 0 3.308-3.312h3.176a3.31 3.31 0 0 0 3.31 3.312A3.31 3.31 0 0 0 42 17.31v-2.17l-5.334-3.389H11.334L6 15.138v2.171z"/>
        <path fill="url(#a)" d="M35.75 37.65V44h-1.5v-6.35H32v-1.5h6v1.5h-2.25zm-18-4V40h-1.5v-6.35H14v-1.5h6v1.5h-2.25zm24 0V40h-1.5v-6.35H38v-1.5h6v1.5h-2.25zm-18 4V44h-1.5v-6.35H20v-1.5h6v1.5h-2.25zm6-6V42h-1.5V31.65H22v-1.5h14v1.5h-6.25z"/>
    </g>
</svg>
