<svg xmlns="http://www.w3.org/2000/svg" width="48" height="48" viewBox="0 0 48 48">
    <defs>
        <linearGradient id="a" x1="0%" y1="30.552%" y2="69.448%">
            <stop offset="0%" stop-color="#60F"/>
            <stop offset="100%" stop-color="#95E"/>
        </linearGradient>
    </defs>
    <g fill="none" fill-rule="evenodd">
        <path fill="url(#a)" d="M7.933 11.85v-1.5h9v1.5h-9zm.067 4v-1.5h9v1.5H8zm0 4v-1.5h9v1.5H8zm30.6-6.35v10.25h-16V13.5h-1V12h1.252a8.006 8.006 0 0 1 6.998-5.965V4h1.5v2.035A8.006 8.006 0 0 1 38.348 12H39.6v1.5h-1zm-1.5.5c0-.168-.006-.335-.019-.5H24.12a6.591 6.591 0 0 0-.019.5v8.5h13V14zm-12.687-2h12.374a6.503 6.503 0 0 0-12.374 0zm5.187 5.75v-1.5h5v1.5h-5z"/>
        <path fill="#161A1D" d="M32.45 23.75V29h-1.5v-5.25h-13.9V29h-1.5v-5.25h-4.2V33h-1.5v-9.25H7c-.69 0-1.25.56-1.25 1.25v14.75h-1.5V25A2.75 2.75 0 0 1 7 22.25h34A2.75 2.75 0 0 1 43.75 25v14.75h-4V44h-1.5v-4.25h-20.5v-1.5h24.5V25c0-.69-.56-1.25-1.25-1.25h-2.85V33h-1.5v-9.25h-4.2zM12 42.5a2.5 2.5 0 1 0 0-5 2.5 2.5 0 0 0 0 5zm0 1.5a4 4 0 1 1 0-8 4 4 0 0 1 0 8z"/>
    </g>
</svg>
