<svg xmlns="http://www.w3.org/2000/svg" width="48" height="48" viewBox="0 0 48 48">
    <defs>
        <linearGradient id="a" x1="45.874%" x2="54.126%" y1="0%" y2="100%">
            <stop offset="0%" stop-color="#60F"/>
            <stop offset="100%" stop-color="#95E"/>
        </linearGradient>
    </defs>
    <g fill="none" fill-rule="evenodd">
        <path fill="var(--color1)" d="M28 4.25V38h-1.5V5.75H11c-.69 0-1.25.56-1.25 1.25v35.25h28.5V7c0-.69-.56-1.25-1.25-1.25h-5v-1.5h5A2.75 2.75 0 0 1 39.75 7v36.75H8.25V7A2.75 2.75 0 0 1 11 4.25h17zm7 7.95a1.2 1.2 0 1 1 0-2.4 1.2 1.2 0 0 1 0 2.4zm0 6a1.2 1.2 0 1 1 0-2.4 1.2 1.2 0 0 1 0 2.4zm-4-6a1.2 1.2 0 1 1 0-2.4 1.2 1.2 0 0 1 0 2.4zm0 6a1.2 1.2 0 1 1 0-2.4 1.2 1.2 0 0 1 0 2.4zm4 6a1.2 1.2 0 1 1 0-2.4 1.2 1.2 0 0 1 0 2.4zm-4 0a1.2 1.2 0 1 1 0-2.4 1.2 1.2 0 0 1 0 2.4z"/>
        <path fill="var(--color2)" d="M14 11.65v-1.5h8v1.5h-8zm0 6v-1.5h8v1.5h-8zm0 6v-1.5h8v1.5h-8zm1.5 12.85h5v-3h-5v3zM14 38v-6h8v6h-8z"/>
    </g>
</svg>
