<svg xmlns="http://www.w3.org/2000/svg" width="48" height="48" viewBox="0 0 48 48">
    <defs>
        <linearGradient id="a" x1="0%" y1="36.202%" y2="63.798%">
            <stop offset="0%" stop-color="#60F"/>
            <stop offset="100%" stop-color="#95E"/>
        </linearGradient>
    </defs>
    <g fill="none" fill-rule="evenodd">
        <path fill="url(#linearColor)" d="M39.85 15.704V25h-1.5v-9.33a4.553 4.553 0 0 1-2.95-1.967 4.546 4.546 0 0 1-3.8 2.047 4.546 4.546 0 0 1-3.8-2.047A4.546 4.546 0 0 1 24 15.75a4.546 4.546 0 0 1-3.8-2.047 4.546 4.546 0 0 1-3.8 2.047 4.546 4.546 0 0 1-3.8-2.047 4.554 4.554 0 0 1-2.85 1.948V25h-1.5v-9.283a4.55 4.55 0 0 1-4-4.517V7A2.75 2.75 0 0 1 7 4.25h34A2.75 2.75 0 0 1 43.75 7v4.2a4.551 4.551 0 0 1-3.9 4.504zM38.647 14.2c.237.033.42.05.547.05.118 0 .304-.017.559-.05a3.05 3.05 0 0 0 2.497-3V7c0-.69-.56-1.25-1.25-1.25H7c-.69 0-1.25.56-1.25 1.25v4.2a3.05 3.05 0 0 0 2.5 3c.247.034.437.05.57.05.112 0 .29-.017.533-.05a3.05 3.05 0 0 0 2.497-3h1.5a3.05 3.05 0 1 0 6.1 0h1.5a3.05 3.05 0 1 0 6.1 0h1.5a3.05 3.05 0 1 0 6.1 0h1.5a3.05 3.05 0 0 0 2.497 3z"/>
        <path fill="#161a1d" d="M39.85 39.75V44h-1.5v-4.25H22v-1.5h20.25V27c0-.69-.56-1.25-1.25-1.25H7c-.69 0-1.25.56-1.25 1.25v12.75h-1.5V27A2.75 2.75 0 0 1 7 24.25h34A2.75 2.75 0 0 1 43.75 27v12.75h-3.9zM14 42.5a4.5 4.5 0 1 0 0-9 4.5 4.5 0 0 0 0 9zm0 1.5a6 6 0 1 1 0-12 6 6 0 0 1 0 12z"/>
    </g>
</svg>
