<svg xmlns="http://www.w3.org/2000/svg" width="48" height="48" viewBox="0 0 48 48">
    <defs>
        <linearGradient id="a" x1="0%" y1="26.686%" y2="73.314%">
            <stop offset="0%" stop-color="#60F"/>
            <stop offset="100%" stop-color="#95E"/>
        </linearGradient>
    </defs>
    <g fill="currentColor" fill-rule="evenodd">
        <path fill="#161A1D" d="M33.359 34.64a5.463 5.463 0 0 0-1.408.539l-1.202-2.404A16.038 16.038 0 0 1 23.9 34.3a16.04 16.04 0 0 1-6.687-1.45l-5.542 11.085-1.342-.67 5.55-11.102C11.2 29.47 8.003 24.491 7.81 18.75H6v-1.5h36v1.5h-2.01c-.19 5.677-3.32 10.61-7.915 13.323l1.284 2.568zm5.13-15.89H9.31C9.6 26.559 16.02 32.8 23.9 32.8s14.3-6.241 14.59-14.05zM34.6 42.5a2.5 2.5 0 1 0 0-5 2.5 2.5 0 0 0 0 5zm0 1.5a4 4 0 1 1 0-8 4 4 0 0 1 0 8z"/>
        <path fill="url(#a)" d="M17.171 4.126l1.16.951c-1.006 1.228-1.006 2.437.025 3.845 1.427 1.946 1.427 3.911-.025 5.681l-1.16-.95c1.007-1.228 1.007-2.438-.025-3.845-1.426-1.946-1.426-3.912.025-5.682zm6 0l1.16.951c-1.006 1.228-1.006 2.437.025 3.845 1.427 1.946 1.427 3.911-.025 5.681l-1.16-.95c1.007-1.228 1.007-2.438-.025-3.845-1.426-1.946-1.426-3.912.025-5.682zm6 0l1.16.951c-1.006 1.228-1.006 2.437.025 3.845 1.427 1.946 1.427 3.911-.025 5.681l-1.16-.95c1.007-1.228 1.007-2.438-.025-3.845-1.426-1.946-1.426-3.912.025-5.682z"/>
    </g>
</svg>
