<svg xmlns="http://www.w3.org/2000/svg" width="48" height="48" viewBox="0 0 48 48">
    <defs>
        <linearGradient id="a" x1="19.473%" x2="80.527%" y1="0%" y2="100%">
            <stop offset="0%" stop-color="#60F"/>
            <stop offset="100%" stop-color="#95E"/>
        </linearGradient>
    </defs>
    <g fill="none" fill-rule="evenodd">
        <path fill="var(--color1)" d="M31.945 20.47a17.43 17.43 0 0 0-1.445-.741v-6.622L26.43 9.75h-4.86l-1.213 1-1.178-.972 1.071-.884V7A2.75 2.75 0 0 1 23 4.25h2A2.75 2.75 0 0 1 27.75 7v1.894L32 12.4V20c0 .162-.02.319-.055.47zM26.25 8.25V7c0-.69-.56-1.25-1.25-1.25h-2c-.69 0-1.25.56-1.25 1.25v1.25h4.5zM29.9 40h-9.027a3.48 3.48 0 0 0 .592-1.5h6.689c.53.58 1.113 1.08 1.747 1.5zM15.75 8.894L20 12.4V20c0 .417-.128.805-.346 1.125l-.331.375.33.375c.22.32.347.708.347 1.125v4c0 .417-.128.805-.346 1.125l-.331.375.33.375c.22.32.347.708.347 1.125v8a2 2 0 0 1-2 2H6a2 2 0 0 1-2-2v-8c0-.417.128-.805.346-1.125l.331-.375-.33-.375A1.99 1.99 0 0 1 4 27v-4c0-.417.128-.805.346-1.125l.331-.375-.33-.375A1.99 1.99 0 0 1 4 20v-7.6l4.25-3.506V7A2.75 2.75 0 0 1 11 4.25h2A2.75 2.75 0 0 1 15.75 7v1.894zm-6.18.856L5.5 13.107V20c0 .147.061.28.17.375L6.944 21.5 5.67 22.625A.495.495 0 0 0 5.5 23v4c0 .147.061.28.17.375L6.944 28.5 5.67 29.625A.495.495 0 0 0 5.5 30v8a.5.5 0 0 0 .5.5h12a.5.5 0 0 0 .5-.5v-8a.495.495 0 0 0-.17-.375L17.056 28.5l1.274-1.125A.495.495 0 0 0 18.5 27v-4a.495.495 0 0 0-.17-.375L17.056 21.5l1.274-1.125A.495.495 0 0 0 18.5 20v-6.893L14.43 9.75H9.57zm.18-1.5h4.5V7c0-.69-.56-1.25-1.25-1.25h-2c-.69 0-1.25.56-1.25 1.25v1.25z"/>
        <path fill="var(--color2)" d="M34.047 40.007c-3.5-.516-5.91-2.804-7.229-6.866-1.452-4.467-.786-8.623 1.997-12.466 2.605.996 4.693 2.478 6.265 4.448 1.572-1.97 3.66-3.452 6.265-4.448 2.783 3.843 3.45 7.999 1.998 12.466-1.368 4.208-3.905 6.513-7.611 6.914l-.273.503c-.781 1.44-2.077 2.43-3.844 2.96l-.718.216-.43-1.437.718-.215c1.328-.399 2.27-1.087 2.862-2.075zm1.033-1.843c.136.14.28.274.433.406.497-.05.968-.141 1.413-.272 2.353-.692 3.983-2.52 4.99-5.62 1.18-3.631.811-6.973-1.127-10.138-1.988.936-3.584 2.219-4.802 3.864-.33.445-.632.917-.907 1.416a14.62 14.62 0 0 0-1.091 2.544c-1.11 3.416-.738 5.934 1.091 7.8zm-.907-11.76c-1.218-1.645-2.814-2.928-4.801-3.864-1.939 3.165-2.307 6.507-1.127 10.138 1.007 3.1 2.637 4.928 4.99 5.62-1.561-2.173-1.785-4.972-.673-8.397.416-1.28.953-2.446 1.611-3.497z"/>
    </g>
</svg>
