<svg xmlns="http://www.w3.org/2000/svg" width="48" height="48" viewBox="0 0 48 48">
    <defs>
        <linearGradient id="a" x1="0%" y1="36.389%" y2="63.611%">
            <stop offset="0%" stop-color="#60F"/>
            <stop offset="100%" stop-color="#95E"/>
        </linearGradient>
    </defs>
    <g fill="none" fill-rule="evenodd">
        <path fill="#161A1D" d="M23.05 42.25v-7.9H5.55v7.9h17.5zm1.5 0h17.5v-9.3h-17.5v9.3zm0-10.8h17.5V26.2c0-.69-.56-1.25-1.25-1.25H24.55v6.5zm-1.5-6.5H6.8c-.69 0-1.25.56-1.25 1.25v6.65h17.5v-7.9zM6.8 23.45h34a2.75 2.75 0 0 1 2.75 2.75v17.55H4.05V26.2a2.75 2.75 0 0 1 2.75-2.75zm30.4 13.4v1.5h-7.6v-1.5h7.6zM18 27.35v1.5h-7.6v-1.5H18zm0 9.2v1.5h-7.6v-1.5H18zm20.4-7.15a1.2 1.2 0 1 1 0-2.4 1.2 1.2 0 0 1 0 2.4zm-5.1 0a1.2 1.2 0 1 1 0-2.4 1.2 1.2 0 0 1 0 2.4zm-5.1 0a1.2 1.2 0 1 1 0-2.4 1.2 1.2 0 0 1 0 2.4z"/>
        <path fill="url(#a)" d="M26.3 8V5.5h-5V8h5zm.746 1.5h-6.1L13.9 12.937V14.5h20v-1.573L27.046 9.5zM19.8 8.39V4h8v4.2l7.6 3.8v4h-23v-4l7.4-3.61z"/>
    </g>
</svg>
