<svg xmlns="http://www.w3.org/2000/svg" width="48" height="48" viewBox="0 0 48 48">
    <defs>
        <linearGradient id="a" x1="0%" y1=".722%" y2="99.278%">
            <stop offset="0%" stop-color="#60F"/>
            <stop offset="100%" stop-color="#95E"/>
        </linearGradient>
    </defs>
    <g fill="none" fill-rule="evenodd">
        <path fill="currentColor" d="M12.806 15.634a17.48 17.48 0 0 0-1.582-.394A11.985 11.985 0 0 1 21 10.2c1.867 0 3.634.426 5.21 1.187l3.248-3.248a3 3 0 1 1 5.788-1.263 3 3 0 1 1-1.263 5.789l-2.95 2.95a11.944 11.944 0 0 1 1.944 7.34c.235.047.466.105.693.172l1.788-1.788a3 3 0 1 1 5.788-1.263 3 3 0 1 1-1.263 5.789l-1.403 1.403a8 8 0 0 1-8.313 11.453l1.427-1.428A6.5 6.5 0 0 0 32.79 24.45a11.995 11.995 0 0 1-4.309 7.134 7.52 7.52 0 0 0-2.213-.298A10.514 10.514 0 0 0 31.29 24.3a10.509 10.509 0 0 0 .21-2.101 10.45 10.45 0 0 0-2.442-6.732 10.561 10.561 0 0 0-1.875-1.755A10.467 10.467 0 0 0 21 11.7a10.48 10.48 0 0 0-8.194 3.933zm24.963 10.324l1.848-1.848.913.358a1.5 1.5 0 1 0 .633-2.895l-1.34-.074-.074-1.34a1.5 1.5 0 1 0-2.894.633l.357.914-2.038 2.038a8.037 8.037 0 0 1 2.595 2.214zm-7.646-11.554l3.494-3.494.913.358a1.5 1.5 0 1 0 .633-2.895l-1.34-.074-.074-1.34a1.5 1.5 0 1 0-2.894.633l.357.914-3.647 3.647a12.064 12.064 0 0 1 2.558 2.25z"/>
        <path fill="currentColor" d="M23.712 35.52a4.556 4.556 0 0 0-.741.783 4.502 4.502 0 0 0 .227 5.645l6.35-6.35a4.501 4.501 0 0 0-5.836-.077zm-2.61 1.021a15.963 15.963 0 0 1-12.416-4.648c-4.04-4.04-5.468-9.703-4.283-14.89 5.187-1.185 10.85.243 14.89 4.283a15.961 15.961 0 0 1 4.656 12.307 6.003 6.003 0 0 1 7.642 2.082l-8.316 8.316a6.002 6.002 0 0 1-2.173-7.45zm1.072-1.624c.047-.051.095-.101.144-.15a14.48 14.48 0 0 0-4.086-12.42 14.537 14.537 0 0 0-2.69-2.121 15.963 15.963 0 0 1-3.29 4.767 15.968 15.968 0 0 1-4.59 3.21 14.54 14.54 0 0 0 2.085 2.63 14.48 14.48 0 0 0 12.427 4.084zM6.951 26.879a14.467 14.467 0 0 0 4.24-2.947 14.461 14.461 0 0 0 3.023-4.412 14.54 14.54 0 0 0-8.502-1.208 14.54 14.54 0 0 0 1.239 8.567zm5.28 2.561v-1.5a3.25 3.25 0 0 0 3.25-3.25h1.5a4.75 4.75 0 0 1-4.75 4.75zm-1.052-7.5a1 1 0 1 1-1.414-1.414 1 1 0 0 1 1.414 1.414z"/>
    </g>
</svg>
