<svg xmlns="http://www.w3.org/2000/svg" width="48" height="48" viewBox="0 0 48 48">
    <defs>
        <linearGradient id="a" x1="0%" y1="7.889%" y2="92.111%">
            <stop offset="0%" stop-color="#60F"/>
            <stop offset="100%" stop-color="#95E"/>
        </linearGradient>
    </defs>
    <g fill="none" fill-rule="evenodd">
        <path fill="var(--color1)" d="M28 37.75h-8v-1.5h8v1.5zm14 0v-1.5h2.25v-9.97l-3.329-5.895a1.25 1.25 0 0 0-1.088-.635H33.75V30h-1.5V15c0-.69-.56-1.25-1.25-1.25h-4.836a2.963 2.963 0 0 0 1.86-1.5H31A2.75 2.75 0 0 1 33.75 15v3.25h6.083a2.75 2.75 0 0 1 2.394 1.398l3.523 6.237V37.75H42zm-36 0H2.25V15A2.75 2.75 0 0 1 5 12.25h2.976a2.963 2.963 0 0 0 1.86 1.5H5c-.69 0-1.25.56-1.25 1.25v21.25H6v1.5zm12.764-24a2.957 2.957 0 0 0 1.86-1.5h2.152a2.957 2.957 0 0 0 1.86 1.5h-2.654c-.1-.12-.194-.246-.282-.377-.088.13-.182.257-.282.377h-2.654zm-1.528 0h-2.654c-.1-.12-.194-.246-.282-.377-.088.13-.182.257-.282.377h-2.654a2.957 2.957 0 0 0 1.86-1.5h2.152a2.957 2.957 0 0 0 1.86 1.5zM13 40.5a3.5 3.5 0 1 0 0-7 3.5 3.5 0 0 0 0 7zm0 1.5a5 5 0 1 1 0-10 5 5 0 0 1 0 10zm22-1.5a3.5 3.5 0 1 0 0-7 3.5 3.5 0 0 0 0 7zm0 1.5a5 5 0 1 1 0-10 5 5 0 0 1 0 10z"/>
        <path fill="var(--color2)" d="M26.795 13.5a2.942 2.942 0 0 0 1.555-2.6V9c0-.69-.56-1.25-1.25-1.25H8.9c-.69 0-1.25.56-1.25 1.25v1.9a2.942 2.942 0 0 0 1.555 2.6 2.95 2.95 0 0 0 4.345-2.6h1.5a2.95 2.95 0 0 0 5.9 0h1.5a2.95 2.95 0 0 0 4.345 2.6zm2.205.016V28H7V13.516a4.43 4.43 0 0 1-.85-2.616V9A2.75 2.75 0 0 1 8.9 6.25h18.2A2.75 2.75 0 0 1 29.85 9v1.9a4.43 4.43 0 0 1-.85 2.616zM8.5 14.824V26.5h19V14.824a4.43 4.43 0 0 1-2.1.526 4.446 4.446 0 0 1-3.7-1.977A4.446 4.446 0 0 1 18 15.35a4.446 4.446 0 0 1-3.7-1.977 4.446 4.446 0 0 1-3.7 1.977 4.43 4.43 0 0 1-2.1-.526z"/>
    </g>
</svg>
