<svg xmlns="http://www.w3.org/2000/svg" width="48" height="48" viewBox="0 0 48 48">
    <defs>
        <linearGradient id="a" x1="32.179%" x2="67.821%" y1="0%" y2="100%">
            <stop offset="0%" stop-color="#60F"/>
            <stop offset="100%" stop-color="#95E"/>
        </linearGradient>
    </defs>
    <g fill="none" fill-rule="evenodd">
        <path fill="#161A1D" d="M38.5 22.367a4.812 4.812 0 0 1-4.38-3.308h-.652a4.811 4.811 0 0 1-9.142 0h-.652a4.811 4.811 0 0 1-9.142 0h-.653A4.812 4.812 0 0 1 9.5 22.367V42.5h29V22.367zm.436-1.496c.16-.012.307-.036.44-.071A3.313 3.313 0 0 0 42 17.559v-2.17L36.666 12H11.334L6 15.388v2.171A3.313 3.313 0 0 0 8.623 20.8c.182.038.336.062.462.071.127.01.265.008.415-.005a3.31 3.31 0 0 0 3.118-3.307h3.176a3.31 3.31 0 0 0 3.309 3.312 3.31 3.31 0 0 0 3.309-3.312h3.176a3.31 3.31 0 0 0 3.31 3.312 3.31 3.31 0 0 0 3.308-3.312h3.176a3.31 3.31 0 0 0 3.118 3.307c.13.015.276.017.436.005zM40 44H8V22.19a4.814 4.814 0 0 1-3.5-4.631v-2.995l5.75-3.653V7A2.75 2.75 0 0 1 13 4.25h22A2.75 2.75 0 0 1 37.75 7v3.911l5.75 3.653v2.995a4.814 4.814 0 0 1-3.5 4.632V44zM11.75 10.5h24.5V7.07c0-.73-.56-1.32-1.25-1.32H13c-.69 0-1.25.59-1.25 1.32v3.43z"/>
        <path fill="url(#a)" d="M23.25 35v-3.5H24a2.5 2.5 0 1 0-2.5-2.5H20a4 4 0 1 1 4.75 3.93V35h-1.5zm.75 3.4a1.2 1.2 0 1 1 0-2.4 1.2 1.2 0 0 1 0 2.4z"/>
    </g>
</svg>
