<svg xmlns="http://www.w3.org/2000/svg" width="48" height="48" viewBox="0 0 48 48">
    <defs>
        <linearGradient id="a" x1="0%" y1="14.201%" y2="85.799%">
            <stop offset="0%" stop-color="#60F"/>
            <stop offset="100%" stop-color="#95E"/>
        </linearGradient>
    </defs>
    <g fill="none" fill-rule="evenodd">
        <path fill="#161a1d" d="M11.75 10.5h24.5V7.07c0-.73-.56-1.32-1.25-1.32H13c-.69 0-1.25.59-1.25 1.32v3.43zm26 .411l5.75 3.653v2.995a4.81 4.81 0 0 1-4.809 4.812 4.811 4.811 0 0 1-4.57-3.312h-.653a4.811 4.811 0 0 1-9.142 0h-.652a4.811 4.811 0 0 1-9.142 0h-.653A4.812 4.812 0 0 1 9.5 22.367V42.5h10.9V44H8V22.19a4.814 4.814 0 0 1-3.5-4.631v-2.995l5.75-3.653V7A2.75 2.75 0 0 1 13 4.25h22A2.75 2.75 0 0 1 37.75 7v3.911zM6 17.56a3.31 3.31 0 0 0 3.309 3.312 3.31 3.31 0 0 0 3.309-3.312h3.176a3.31 3.31 0 0 0 3.309 3.312 3.31 3.31 0 0 0 3.309-3.312h3.176a3.31 3.31 0 0 0 3.31 3.312 3.31 3.31 0 0 0 3.308-3.312h3.176a3.31 3.31 0 0 0 3.31 3.312A3.31 3.31 0 0 0 42 17.56v-2.17L36.666 12H11.334L6 15.388v2.171z"/>
        <path fill="url(#linearColor)" d="M36.526 37.673c-1.508-1.77-3.351-2.713-5.193-2.713-1.841 0-3.684.943-5.192 2.713-1.378 1.618-2.197 3.647-2.197 5.36 0 .586.14.925.392 1.129.27.219.719.338 1.408.338s1.34-.09 2.849-.358c1.465-.262 2.05-.345 2.74-.345.616 0 1.153.078 2.54.329 2.69.485 3.851.503 4.453.016.257-.207.396-.54.396-1.11 0-1.712-.818-3.74-2.196-5.359zm1.142-.973c1.6 1.879 2.554 4.246 2.554 6.332 0 1-.32 1.766-.953 2.277-1.33 1.075-3.632.66-5.663.293-.87-.157-1.69-.305-2.273-.305-.674 0-1.55.156-2.477.321-1.06.19-2.14.382-3.112.382-.913 0-1.732-.17-2.352-.673-.629-.509-.948-1.28-.948-2.295 0-2.086.955-4.453 2.555-6.332 1.78-2.09 4.03-3.24 6.334-3.24 2.305 0 4.555 1.15 6.335 3.24zm-1.4-10.344c-.395-.567-.9-.856-1.38-.856-.479 0-.983.29-1.378.856-.429.613-.677 1.46-.677 2.374 0 .913.248 1.76.677 2.374.395.567.9.856 1.379.856.48 0 .984-.29 1.38-.856.427-.613.675-1.461.675-2.374s-.248-1.76-.676-2.374zm1.23-.859c.61.874.946 2.023.946 3.233s-.336 2.358-.946 3.233c-.664.951-1.615 1.497-2.61 1.497-.993 0-1.944-.546-2.608-1.497-.61-.875-.947-2.023-.947-3.233s.336-2.358.947-3.233c.664-.951 1.615-1.497 2.609-1.497s1.945.546 2.61 1.497zm-9.008.859c-.395-.567-.9-.856-1.379-.856-.48 0-.984.29-1.38.856-.427.613-.675 1.46-.675 2.374 0 .913.248 1.76.676 2.374.395.567.9.856 1.38.856.479 0 .983-.29 1.378-.856.429-.613.677-1.461.677-2.374s-.249-1.76-.677-2.374zm1.23-.859c.61.875.947 2.023.947 3.233s-.336 2.358-.947 3.233c-.664.951-1.615 1.497-2.609 1.497s-1.945-.546-2.61-1.497c-.61-.875-.945-2.023-.945-3.233s.336-2.358.946-3.233c.664-.951 1.615-1.497 2.61-1.497.993 0 1.944.546 2.608 1.497zm12.692 6.563c-.125-.443-.34-.7-.59-.799-.172-.067-.382-.055-.615.059-.447.218-.864.732-1.095 1.422-.194.582-.218 1.185-.08 1.678.125.443.34.7.59.799.07.027.144.041.223.041a.9.9 0 0 0 .393-.1c.447-.218.863-.732 1.094-1.422.195-.582.219-1.185.08-1.678zm1.444-.407c.222.791.186 1.7-.101 2.561-.353 1.053-1.03 1.89-1.859 2.294-.343.168-.7.252-1.05.252-.265 0-.525-.048-.771-.145-.712-.279-1.24-.914-1.486-1.788-.223-.791-.187-1.7.1-2.561.353-1.053 1.03-1.89 1.86-2.294.6-.294 1.248-.332 1.82-.107.713.279 1.24.914 1.487 1.788zm-23.063-.333c-.233-.114-.443-.126-.615-.059-.251.098-.465.356-.59.799-.139.493-.115 1.096.08 1.678.23.69.647 1.204 1.094 1.422a.9.9 0 0 0 .393.1c.079 0 .153-.014.223-.041.25-.099.465-.356.59-.799.138-.493.114-1.096-.08-1.678-.231-.69-.648-1.204-1.095-1.422zm2.517.946c.288.86.324 1.77.101 2.56-.246.875-.774 1.51-1.486 1.79a2.105 2.105 0 0 1-.77.144c-.35 0-.708-.084-1.051-.252-.829-.405-1.506-1.24-1.859-2.294-.287-.86-.323-1.77-.1-2.56.246-.875.773-1.51 1.485-1.79.573-.224 1.22-.186 1.822.108.828.405 1.506 1.24 1.858 2.294z"/>
    </g>
</svg>
