<svg xmlns="http://www.w3.org/2000/svg" width="48" height="48" viewBox="0 0 48 48">
    <defs>
        <linearGradient id="a" x1="0%" y1="17.153%" y2="82.847%">
            <stop offset="0%" stop-color="#60F"/>
            <stop offset="100%" stop-color="#95E"/>
        </linearGradient>
    </defs>
    <g fill="none" fill-rule="evenodd">
        <path fill="#161a1d" d="M4.5 15.559v-2.995l5.95-3.78V5a2.75 2.75 0 0 1 2.75-2.75h22A2.75 2.75 0 0 1 37.95 5v4.038l5.55 3.526v2.995a4.81 4.81 0 0 1-4.809 4.812 4.811 4.811 0 0 1-4.57-3.312h-.653a4.811 4.811 0 0 1-9.142 0h-.652a4.811 4.811 0 0 1-9.142 0h-.653A4.812 4.812 0 0 1 9.5 20.367V40.5H20V42H8V20.19a4.814 4.814 0 0 1-3.5-4.631zM8.623 18.8a2.998 2.998 0 0 0 .877.066 3.31 3.31 0 0 0 3.118-3.307h3.176a3.31 3.31 0 0 0 3.309 3.312 3.31 3.31 0 0 0 3.309-3.312h3.176a3.31 3.31 0 0 0 3.31 3.312 3.31 3.31 0 0 0 3.308-3.312h3.176a3.31 3.31 0 0 0 3.118 3.307c.166.015.324.016.473.005.15-.011.284-.035.404-.071A3.313 3.313 0 0 0 42 15.559v-2.17L36.666 10H11.334L6 13.388v2.171A3.313 3.313 0 0 0 8.623 18.8zM11.95 8.5h24.5V5.07c0-.73-.56-1.32-1.25-1.32h-22c-.69 0-1.25.59-1.25 1.32V8.5z"/>
        <path fill="url(#linearColor)" d="M29.854 29.316c-.25-.43-.524-.85-.821-1.256a6.288 6.288 0 0 1 3.338-.954c.677 0 1.33.107 1.943.305l1.567-1.585a2.797 2.797 0 0 1 .614-2.974 2.72 2.72 0 0 1 3.878 0c.497.502.763 1.149.799 1.806.65.037 1.29.306 1.786.808a2.795 2.795 0 0 1 0 3.922 2.72 2.72 0 0 1-2.94.621l-1.573 1.59c.193.616.297 1.27.297 1.95 0 1.582-.564 3.03-1.5 4.152a6.27 6.27 0 0 0-1.05-1.086 4.967 4.967 0 0 0 1.05-3.066 4.96 4.96 0 0 0-.559-2.3 4.93 4.93 0 0 0-2.017-2.06 4.79 4.79 0 0 0-2.295-.583c-.92 0-1.782.26-2.517.71zm7.924.825l1.87-1.892.922.366c.452.179.97.074 1.322-.282a1.296 1.296 0 0 0 0-1.812 1.218 1.218 0 0 0-.804-.365l-1.34-.075-.074-1.34a1.277 1.277 0 0 0-.368-.835 1.22 1.22 0 0 0-1.744 0 1.297 1.297 0 0 0-.282 1.378l.35.906-1.876 1.898a6.441 6.441 0 0 1 2.024 2.053zM28.2 39.69a12.535 12.535 0 0 1-9.828-3.683c-3.183-3.204-4.309-7.695-3.375-11.809 4.088-.939 8.55.193 11.734 3.397a12.704 12.704 0 0 1 3.665 9.829 4.747 4.747 0 0 1 5.45.914c.23.23.43.478.604.738l-6.533 6.534a4.803 4.803 0 0 1-.739-.605 4.749 4.749 0 0 1-.978-5.315zm6.163-.648c-1.267-.901-3.025-.79-4.148.333-1.123 1.123-1.234 2.88-.333 4.148l4.481-4.48zm-10.72-12.002a12.668 12.668 0 0 1-2.46 3.495c-1.002 1.007-2.129 1.81-3.331 2.407.444.718.973 1.392 1.584 2.007a11.044 11.044 0 0 0 9.382 3.169 11.22 11.22 0 0 0-5.174-11.078zm-3.525 2.437a11.169 11.169 0 0 0 2.195-3.13 11.072 11.072 0 0 0-6.004-.839 11.295 11.295 0 0 0 .851 6.103 11.097 11.097 0 0 0 2.958-2.134z"/>
    </g>
</svg>
