<svg xmlns="http://www.w3.org/2000/svg" width="48" height="48" viewBox="0 0 48 48">
    <defs>
        <linearGradient id="a" x1="0%" y1="18.263%" y2="81.737%">
            <stop offset="0%" stop-color="#60F"/>
            <stop offset="100%" stop-color="#95E"/>
        </linearGradient>
    </defs>
    <g fill="currentColor" fill-rule="evenodd">
        <path fill="#161A1D" d="M35.5 21.25h3.25A2.75 2.75 0 0 1 41.5 24v11a2.75 2.75 0 0 1-2.75 2.75H35.5v3.55c0 1.491-1.231 2.7-2.75 2.7h-19C12.231 44 11 42.791 11 41.3v-9.7a1.991 1.991 0 0 0 1.5.378V41.3c0 .678.56 1.227 1.25 1.227h19c.69 0 1.25-.55 1.25-1.227V18.473H14.2V17h21.3v4.25zm0 1.5v13.5h3.25c.69 0 1.25-.56 1.25-1.25V24c0-.69-.56-1.25-1.25-1.25H35.5zM20 23.6h1.5v13H20v-13zm6 0h1.5v13H26v-13z"/>
        <path fill="url(#a)" d="M29.88 9.86a4.502 4.502 0 0 0-8.619-.474 4.502 4.502 0 1 0-8.61 2.6c-.74-.357-1.506-.586-2.151-.586a4.5 4.5 0 0 0-.3 8.99V30a2 2 0 1 0 4 0V17h20.2a5 5 0 1 0-4.52-7.14zM34.4 5.5a6.5 6.5 0 1 1 0 13H15.7V30a3.5 3.5 0 0 1-7 0v-8.375A6 6 0 0 1 10.5 9.9c.14 0 .283.007.428.02a6 6 0 0 1 10.466-3.396 5.998 5.998 0 0 1 8.743.568A6.49 6.49 0 0 1 34.4 5.5z"/>
    </g>
</svg>
