<svg xmlns="http://www.w3.org/2000/svg" width="48" height="48" viewBox="0 0 48 48">
    <defs>
        <linearGradient id="a" x1="0%" y1="29.944%" y2="70.056%">
            <stop offset="0%" stop-color="#60F"/>
            <stop offset="100%" stop-color="#95E"/>
        </linearGradient>
    </defs>
    <g fill="none" fill-rule="evenodd">
        <path fill="var(--color1)" d="M11.75 10.5h24.5V7.07c0-.73-.56-1.32-1.25-1.32H13c-.69 0-1.25.59-1.25 1.32v3.43zm26 .411l5.75 3.653v2.995a4.81 4.81 0 0 1-4.809 4.812 4.811 4.811 0 0 1-4.57-3.312h-.653a4.811 4.811 0 0 1-9.142 0h-.652a4.811 4.811 0 0 1-9.142 0h-.653A4.812 4.812 0 0 1 9.5 22.367V44H8V22.19a4.814 4.814 0 0 1-3.5-4.631v-2.995l5.75-3.653V7A2.75 2.75 0 0 1 13 4.25h22A2.75 2.75 0 0 1 37.75 7v3.911zM6 17.56a3.31 3.31 0 0 0 3.309 3.312 3.31 3.31 0 0 0 3.309-3.312h3.176a3.31 3.31 0 0 0 3.309 3.312 3.31 3.31 0 0 0 3.309-3.312h3.176a3.31 3.31 0 0 0 3.31 3.312 3.31 3.31 0 0 0 3.308-3.312h3.176a3.31 3.31 0 0 0 3.31 3.312A3.31 3.31 0 0 0 42 17.56v-2.17L36.666 12H11.334L6 15.388v2.171z"/>
        <path fill="var(--color2)" d="M26.923 30.165a3 3 0 1 1 4.153 0c6.033.968 10.678 6.087 10.915 12.335H44V44H14v-1.5h2.01c.236-6.248 4.88-11.367 10.913-12.335zM40.49 42.5c-.261-6.12-5.305-11-11.489-11-6.184 0-11.228 4.88-11.49 11h22.98zm-14.384-8.76l.496 1.416a7.276 7.276 0 0 0-4.097 3.62l-1.343-.667a8.776 8.776 0 0 1 4.944-4.368zM29 29.5a1.5 1.5 0 1 0 0-3 1.5 1.5 0 0 0 0 3z"/>
    </g>
</svg>
