<svg xmlns="http://www.w3.org/2000/svg" width="48" height="48" viewBox="0 0 48 48">
    <defs>
        <linearGradient id="a" x1="0%" y1="25.143%" y2="74.857%">
            <stop offset="0%" stop-color="#60F"/>
            <stop offset="100%" stop-color="#95E"/>
        </linearGradient>
    </defs>
    <g fill="none" fill-rule="evenodd">
        <path fill="#161a1d" d="M11.75 8.5h24.5V5.07c0-.73-.56-1.32-1.25-1.32H13c-.69 0-1.25.59-1.25 1.32V8.5zm26 .411l5.75 3.653v2.995a4.81 4.81 0 0 1-4.809 4.812 4.811 4.811 0 0 1-4.57-3.312h-.653a4.811 4.811 0 0 1-9.142 0h-.652a4.811 4.811 0 0 1-9.142 0h-.653A4.812 4.812 0 0 1 9.5 20.367V42H8V20.19a4.814 4.814 0 0 1-3.5-4.631v-2.995l5.75-3.653V5A2.75 2.75 0 0 1 13 2.25h22A2.75 2.75 0 0 1 37.75 5v3.911zM6 15.56a3.31 3.31 0 0 0 3.309 3.312 3.31 3.31 0 0 0 3.309-3.312h3.176a3.31 3.31 0 0 0 3.309 3.312 3.31 3.31 0 0 0 3.309-3.312h3.176a3.31 3.31 0 0 0 3.31 3.312 3.31 3.31 0 0 0 3.308-3.312h3.176a3.31 3.31 0 0 0 3.31 3.312A3.31 3.31 0 0 0 42 15.56v-2.17L36.666 10H11.334L6 13.388v2.171z"/>
        <path fill="url(#linearColor)" d="M32.25 33.75H17c-.69 0-1.25.56-1.25 1.25v8.75h-1.5V35A2.75 2.75 0 0 1 17 32.25h12.1a5.601 5.601 0 0 1 4.85-5.5V25.2h1.5v1.55a5.601 5.601 0 0 1 4.85 5.5h.7A2.75 2.75 0 0 1 43.75 35v8.75h-4.5V46h-1.5v-2.25h-10v-1.5h14.5V35c0-.69-.56-1.25-1.25-1.25h-3.25V39h-1.5v-5.25h-2.5V37h-1.5v-3.25zm-1.65-1.5h8.2a4.1 4.1 0 0 0-8.2 0zM22 44.5a2.5 2.5 0 1 0 0-5 2.5 2.5 0 0 0 0 5zm0 1.5a4 4 0 1 1 0-8 4 4 0 0 1 0 8zm-4-19.25v-1.5h7v1.5h-7zm0 3.5v-1.5h7v1.5h-7z"/>
    </g>
</svg>
