<svg xmlns="http://www.w3.org/2000/svg" width="48" height="48" viewBox="0 0 48 48">
    <defs>
        <linearGradient id="a" x1="0%" y1="33.673%" y2="66.327%">
            <stop offset="0%" stop-color="#60F"/>
            <stop offset="100%" stop-color="#95E"/>
        </linearGradient>
    </defs>
    <g fill="none" fill-rule="evenodd">
        <path fill="currentColor" d="M36 40v-1.5h4.5V25.75h-33V38.5H12V40H6V25.75H4v-1.5h2v-9.463A4.542 4.542 0 0 1 4.25 11.2V7A2.75 2.75 0 0 1 7 4.25h34A2.75 2.75 0 0 1 43.75 7v4.2A4.542 4.542 0 0 1 42 14.787v9.463h2v1.5h-2V40h-6zm6-27.589c.16-.371.25-.78.25-1.211V7c0-.69-.56-1.25-1.25-1.25H7c-.69 0-1.25.56-1.25 1.25v4.2c0 .43.09.84.25 1.211.295.681.83 1.233 1.5 1.549a3.05 3.05 0 0 0 4.35-2.76h1.5a3.05 3.05 0 0 0 6.1 0h1.5a3.05 3.05 0 0 0 6.1 0h1.5a3.05 3.05 0 0 0 6.1 0h1.5A3.05 3.05 0 0 0 42 12.411zm-1.5 3.15a4.546 4.546 0 0 1-5.1-1.858 4.546 4.546 0 0 1-3.8 2.047 4.546 4.546 0 0 1-3.8-2.047A4.546 4.546 0 0 1 24 15.75a4.546 4.546 0 0 1-3.8-2.047 4.546 4.546 0 0 1-3.8 2.047 4.546 4.546 0 0 1-3.8-2.047 4.546 4.546 0 0 1-5.1 1.859v8.688h33v-8.688z"/>
        <path fill="currentColor" d="M32.75 34v10h-1.5V34H26v-6h12v6h-5.25zm-16 0v10h-1.5V34H10v-6h12v6h-5.25zm-5.25-4.5v3h9v-3h-9zm16 0v3h9v-3h-9z"/>
    </g>
</svg>
