<svg xmlns="http://www.w3.org/2000/svg" width="48" height="48" viewBox="0 0 48 48">
    <defs>
        <linearGradient id="a" x1="32.878%" x2="67.122%" y1="0%" y2="100%">
            <stop offset="0%" stop-color="#60F"/>
            <stop offset="100%" stop-color="#95E"/>
        </linearGradient>
    </defs>
    <g fill="none" fill-rule="evenodd">
        <path fill="#161A1D" d="M32 16h-1.581l-1.417-4.25H6.998L5.5 16.243V38.5h19.812l.127 1.5H4V16l2-6V7c0-1.523 1.255-2.75 2.795-2.75h18.41C28.745 4.25 30 5.477 30 7v3l2 6zm-3.5-5.75V7.074c0-.727-.576-1.324-1.295-1.324H8.795c-.719 0-1.295.597-1.295 1.324v3.176h21z"/>
        <path fill="url(#a)" d="M37.468 18H41a2.75 2.75 0 0 1 2.75 2.75v3.75h-1.877L40.223 44H27.777l-1.651-19.5H24.25v-3.75A2.75 2.75 0 0 1 27 18h8.846l3.182-7.75H44v1.5h-3.966L37.468 18zM25.75 23h16.5v-2.25c0-.69-.56-1.25-1.25-1.25H27c-.69 0-1.25.56-1.25 1.25V23zm14.618 1.5H27.632l1.524 18h9.688l1.524-18z"/>
    </g>
</svg>
