<svg xmlns="http://www.w3.org/2000/svg" xmlns:xlink="http://www.w3.org/1999/xlink" width="24" height="24" viewBox="0 0 24 24">
    <defs>
        <path id="a" d="M12 19a7 7 0 1 1 0-14 7 7 0 0 1 0 14zm-.717-5.782h1.42V8.175h-1.42v5.043zm.713 2.605a.81.81 0 0 0 .811-.802.809.809 0 1 0-1.617 0c0 .438.364.802.806.802z"/>
    </defs>
    <g fill="currentColor" fill-rule="evenodd">
        <mask id="b" fill="#fff">
            <use xlink:href="#a"/>
        </mask>
        <use fill="#DC3545" xlink:href="#a"/>
        <g fill="transparent" mask="url(#b)">
            <path d="M3 0h18a3 3 0 0 1 3 3v18a3 3 0 0 1-3 3H3a3 3 0 0 1-3-3V3a3 3 0 0 1 3-3z"/>
        </g>
    </g>
</svg>
