<svg xmlns="http://www.w3.org/2000/svg" xmlns:xlink="http://www.w3.org/1999/xlink" width="24" height="24" viewBox="0 0 24 24">
    <defs>
        <path id="a" d="M12 19a7 7 0 1 1 0-14 7 7 0 0 1 0 14zm-.623-5.482h1.317V12.45c.742-.122 1.851-.595 1.851-2.126C14.545 8.895 13.447 8 12.028 8c-1.48 0-2.523.992-2.528 2.385h1.287c.015-.691.498-1.17 1.25-1.17.687 0 1.227.392 1.227 1.12 0 1.098-.91 1.23-1.887 1.23v1.953zM12.073 16a.835.835 0 0 0 0-1.668.84.84 0 0 0-.839.839c0 .458.377.829.84.829z"/>
    </defs>
    <g fill="currentColor" fill-rule="evenodd">
        <mask id="b" fill="#fff">
            <use xlink:href="#a"/>
        </mask>
        <use fill="currentColor" xlink:href="#a"/>
        <g fill="transparent" mask="url(#b)">
            <path d="M3 0h18a3 3 0 0 1 3 3v18a3 3 0 0 1-3 3H3a3 3 0 0 1-3-3V3a3 3 0 0 1 3-3z"/>
        </g>
    </g>
</svg>
