<svg xmlns="http://www.w3.org/2000/svg" xmlns:xlink="http://www.w3.org/1999/xlink" width="32" height="32" viewBox="0 0 32 32">
    <defs>
        <path id="a" d="M15.999 30.04c7.732 0 14-6.267 14-14 0-7.731-6.268-14-14-14s-14 6.269-14 14c0 7.733 6.268 14 14 14zM17.714 8L17 18h-2l-.714-10h3.428zM16 24a1.778 1.778 0 1 1 0-3.556A1.778 1.778 0 0 1 16 24z"/>
    </defs>
    <g fill="currentColor" fill-rule="evenodd">
        <mask id="b" fill="currentColor">
            <use xlink:href="#a"/>
        </mask>
        <use fill="currentColor" fill-rule="nonzero" xlink:href="#a"/>
        <g fill="transparent" mask="url(#b)">
            <path d="M3 0h26a3 3 0 0 1 3 3v26a3 3 0 0 1-3 3H3a3 3 0 0 1-3-3V3a3 3 0 0 1 3-3z"/>
        </g>
    </g>
</svg>
