<svg xmlns="http://www.w3.org/2000/svg" xmlns:xlink="http://www.w3.org/1999/xlink" width="24" height="24" viewBox="0 0 24 24">
    <defs>
        <path id="a" d="M19.793 11.5l-3.5-3.5.707-.707L21.707 12 17 16.707 16.293 16l3.5-3.5H9v-1h10.793zm-1.293 10v-3h1v4h-15v-21h15v4h-1v-3h-13v19h13z"/>
    </defs>
    <g fill="currentColor" fill-rule="evenodd">
        <mask id="b" fill="currentColor">
            <use xlink:href="#a"/>
        </mask>
        <use fill="currentColor" fill-rule="nonzero" xlink:href="#a"/>
        <g fill="transparent" mask="url(#b)">
            <path d="M3 0h18a3 3 0 0 1 3 3v18a3 3 0 0 1-3 3H3a3 3 0 0 1-3-3V3a3 3 0 0 1 3-3z"/>
        </g>
    </g>
</svg>
