<svg xmlns="http://www.w3.org/2000/svg" xmlns:xlink="http://www.w3.org/1999/xlink" width="24" height="24" viewBox="0 0 24 24">
    <defs>
        <path id="a" d="M10 0v2a8 8 0 1 0 8 8h2c0 5.523-4.477 10-10 10S0 15.523 0 10 4.477 0 10 0z"/>
    </defs>
    <g fill="none" fill-rule="evenodd" transform="translate(2 2)">
        <mask id="b" fill="#fff">
            <use xlink:href="#a"/>
        </mask>
        <use fill="currentColor" fill-rule="nonzero" xlink:href="#a"/>
        <g fill="transparent" mask="url(#b)">
            <path d="M1-2h18a3 3 0 0 1 3 3v18a3 3 0 0 1-3 3H1a3 3 0 0 1-3-3V1a3 3 0 0 1 3-3z"/>
        </g>
    </g>
</svg>
