<svg xmlns="http://www.w3.org/2000/svg" xmlns:xlink="http://www.w3.org/1999/xlink" width="24" height="24" viewBox="0 0 24 24">
    <defs>
        <path id="a" d="M20 12V6H4v6h5v-2h6v2h5zm0 1h-5v2H9v-2H3V5h5V3h8v2h5v8h-1zm-6-1v-1h-4v3h4v-2zm-9 8h14v-6h1v7H4v-7h1v6zM9 5h6V4H9v1z"/>
    </defs>
    <g fill="currentColor" fill-rule="evenodd">
        <mask id="b" fill="#fff">
            <use xlink:href="#a"/>
        </mask>
        <use fill="currentColor" xlink:href="#a"/>
        <g fill="transparent" mask="url(#b)">
            <path d="M3 0h18a3 3 0 0 1 3 3v18a3 3 0 0 1-3 3H3a3 3 0 0 1-3-3V3a3 3 0 0 1 3-3z"/>
        </g>
    </g>
</svg>
