<?xml version="1.0" encoding="UTF-8"?>
<svg width="24px" height="24px" viewBox="0 0 24 24" version="1.1" xmlns="http://www.w3.org/2000/svg" xmlns:xlink="http://www.w3.org/1999/xlink">
    <!-- Generator: sketchtool 52.4 (67378) - http://www.bohemiancoding.com/sketch -->
    <title>043D8EDC-EED8-4458-8D63-B68DA74F3606</title>
    <desc>Created with sketchtool.</desc>
    <g id="Symbols" stroke="none" stroke-width="1" fill="none" fill-rule="evenodd">
        <g id="Components/Icon/24x/Warning" fill="currentColor">
            <path d="M21.9199026,20.4983264 L12.5869748,2.82975667 C12.3543182,2.39008111 11.6456824,2.39008111 11.4130258,2.82975667 L2.08009803,20.4983264 C1.96843418,20.7089315 1.97383988,20.9639207 2.09432486,21.1694116 C2.21480983,21.3749026 2.43256082,21.5005141 2.66740585,21.4999984 L21.3332614,21.4999984 C21.5679876,21.5002741 21.7855228,21.3745671 21.9058459,21.1691191 C22.026169,20.9636711 22.0315094,20.7088248 21.9199026,20.4983264 Z M13,8.5 L13,15.5 L11,15.5 L11,8.5 L13,8.5 Z M12,19.5000001 C11.3096441,19.5000001 10.75,18.940356 10.75,18.25 C10.75,17.5596441 11.3096441,17 12,17 C12.690356,17 13.25,17.5596441 13.25,18.25 C13.25,18.940356 12.690356,19.5 12,19.5000001 Z" id="Mask-Copy"></path>
        </g>
    </g>
</svg>
