<svg xmlns="http://www.w3.org/2000/svg" width="48" height="48" viewBox="0 0 48 48">
    <path fill="currentColor" fill-rule="evenodd" d="M40.11 27.585l-3.379 1.95-.75-1.299 5.549-3.203 3.203 5.548-1.299.75-1.892-3.278C39.703 36.043 32.547 42 24 42c-8.919 0-16.323-6.487-17.751-15h1.523c1.41 7.68 8.14 13.5 16.228 13.5 7.882 0 14.473-5.526 16.11-12.915zM7.891 20.408l3.372-1.947.75 1.299-5.548 3.203-3.203-5.548 1.299-.75 1.896 3.284C8.296 11.959 15.452 6 24 6c8.919 0 16.323 6.487 17.751 15h-1.523C38.818 13.32 32.088 7.5 24 7.5c-7.879 0-14.468 5.522-16.108 12.908zM32 25.689V34H16v-8.311a3.064 3.064 0 0 1-2-2.873V20.61l3.48-2.86V14h13v3.75h.039L34 20.611v2.205a3.064 3.064 0 0 1-2 2.873zm-3.375-.865a3.055 3.055 0 0 1-2.313 1.054A3.055 3.055 0 0 1 24 24.824a3.055 3.055 0 0 1-2.313 1.054 3.055 3.055 0 0 1-2.312-1.054 3.058 3.058 0 0 1-1.875 1.023V32.5H21V28h6v4.5h3.5v-6.653a3.058 3.058 0 0 1-1.875-1.023zM18.98 17.7h10v-2.2h-10v2.2zm-3.48 5.116a1.563 1.563 0 0 0 3.125 0h1.5a1.563 1.563 0 0 0 3.125 0h1.5a1.563 1.563 0 0 0 3.125 0h1.5a1.563 1.563 0 0 0 3.125 0V21.32l-2.519-2.07H18.02L15.5 21.32v1.496zm10 9.684v-3h-3v3h3z"/>
</svg>
