<?xml version="1.0" encoding="UTF-8"?>
<svg width="40px" height="39px" viewBox="0 0 40 39" version="1.1" xmlns="http://www.w3.org/2000/svg" xmlns:xlink="http://www.w3.org/1999/xlink">
    <!-- Generator: Sketch 58 (84663) - https://sketch.com -->
    <title>Components/Icon/48x/Hala</title>
    <desc>Created with Sketch.</desc>
    <g id="Yuting" stroke="none" stroke-width="1" fill="none" fill-rule="evenodd">
        <g id="Group-24" transform="translate(-112.000000, -44.000000)">
            <g id="Group-22">
                <g id="Components/Icon/48x/Hala" transform="translate(108.000000, 40.000000)">
                    <rect id="Rectangle" x="0" y="0" width="48" height="48"></rect>
                    <g id="Group-19" transform="translate(4.000000, 4.500000)">
                        <path fill="currentColor" fill-rule="evenodd" d="M23.45,26.5 L23.45,34.75 L29.8938439,34.75 L27.4656913,31.85 L24.9666667,31.85 L24.9666667,30.35 L28.1661214,30.35 L33.1061561,36.25 L23.45,36.25 L23.45,38.25 L18.9995802,38.25 L18.9995802,36.75 L21.95,36.75 L21.95,26.5 L23.45,26.5 Z M15.45,26.5 L15.45,38.25 L9,38.25 L9,33.25 L10.5,33.25 L10.5,36.749 L13.95,36.75 L13.95,26.5 L15.45,26.5 Z M19.45,26.5 L19.45,33.3 L17.95,33.3 L17.95,26.5 L19.45,26.5 Z M33.9653589,5.78464107 C41.0932758,12.9125579 41.6338524,24.1333233 35.5870887,31.8820381 C35.2888683,31.4555 34.9744836,31.0425746 34.6440896,30.6433828 C36.5767495,28.0526084 37.732477,25.065395 38.1113122,22.0004581 L32.2437101,22.0006438 C31.9605332,23.7780617 31.4488966,25.4793077 30.7398473,27.0733348 C30.3226706,26.7880843 29.8944115,26.5184996 29.4551021,26.2659714 C30.0365729,24.9180904 30.4663663,23.4891215 30.7229857,22.0007518 L20.7491313,22 L20.75,24 L19.25,24 L19.2491313,22 L9.27699714,22.0007162 C9.53360118,23.4891366 9.96337011,24.9182975 10.5448118,26.2667067 C10.1052361,26.5187022 9.67664234,26.7885168 9.26002268,27.0745093 C8.55115415,25.4801908 8.03952281,23.778704 7.75632463,22.001055 L1.88850222,22.0007028 C2.26718174,25.0655883 3.4227152,28.0529116 5.35507068,30.6438585 C5.02551639,31.0425746 4.71113168,31.4555 4.41374015,31.8811751 C-1.63385238,24.1333233 -1.09327578,12.9125579 6.03464107,5.78464107 C13.7474958,-1.92821369 26.2525042,-1.92821369 33.9653589,5.78464107 Z M3.9497656,11.0555745 C2.36083331,13.9845994 1.6327234,17.2569725 1.76539861,20.5008448 L7.57374316,20.501183 C7.52491414,19.9239365 7.5,19.3398777 7.5,18.75 C7.5,17.3092842 7.64862044,15.9032806 7.93136638,14.5464841 C6.46483795,13.5495142 5.12715415,12.3756411 3.9497656,11.0555745 Z M9.29455897,15.3993876 C9.10096417,16.4871796 9,17.6067991 9,18.75 C9,19.3403727 9.02692618,19.9244566 9.07961747,20.5010903 L19.2491313,20.5 L19.2495713,18.2371487 C15.633259,18.1131022 12.2436965,17.0959568 9.29455897,15.3993876 Z M30.7054192,15.3989049 C27.7556649,17.0961065 24.366341,18.1131235 20.7503593,18.2371508 L20.7501313,20.5 L30.9203774,20.501137 C30.973072,19.9244951 31,19.3403922 31,18.75 C31,17.6065653 30.8989945,16.4867218 30.7054192,15.3989049 Z M36.0505751,11.0542503 C34.8732224,12.375454 33.5356211,13.5491426 32.0682555,14.5461182 C32.3513066,15.90259 32.5,17.3089304 32.5,18.75 C32.5,19.3398034 32.4750921,19.9237893 32.4262709,20.5009632 L38.234489,20.5005618 C38.3673169,17.2565775 37.63933,13.9838957 36.0505751,11.0542503 Z M11.8929663,8.66908781 C10.8969875,10.2552313 10.1293639,12.0004112 9.63590713,13.8573174 C12.4587022,15.5719986 15.7385038,16.6066391 19.2494534,16.7361769 L19.2493852,10.2371423 C16.6541366,10.1480981 14.1756716,9.59908788 11.8929663,8.66908781 Z M28.1072511,8.66807274 L27.8371392,8.77661273 C25.629245,9.64156496 23.2434449,10.1516992 20.7498344,10.2371688 L20.7500986,16.7361939 C24.261361,16.606729 27.5414071,15.5720947 30.3637681,13.8587595 C29.8705947,12.0014479 29.1030809,10.255888 28.1072511,8.66807274 Z M32.3718225,6.3331941 L32.0344857,6.56760758 C31.2232644,7.1168864 30.3725378,7.61215279 29.487459,8.04827191 C30.4241866,9.57430799 31.1659267,11.2323571 31.6791177,12.9879546 C32.9941638,12.0401727 34.1900665,10.9361758 35.2390799,9.70324103 C34.5718378,8.6922353 33.7937154,7.73431786 32.9046988,6.84530124 C32.7296994,6.6703019 32.5520303,6.49959952 32.3718225,6.3331941 Z M7.62709551,6.33517435 L7.36127485,6.58459458 C7.27195317,6.67041053 7.18328974,6.75731275 7.09530124,6.84530124 C6.20657765,7.73402484 5.42867516,8.69160385 4.76159379,9.70086615 C5.81028405,10.9356302 7.00578441,12.0394091 8.32106247,12.9872525 C8.83438402,11.2318941 9.57603655,9.57417174 10.5116867,8.04838423 C9.50331001,7.55173095 8.53911865,6.97805417 7.62709551,6.33517435 Z M19.2487516,1.88184943 C16.6909686,3.21112286 14.4737441,5.10517763 12.7622437,7.39877577 C14.7861731,8.18595846 16.969005,8.65200938 19.2492946,8.73616986 L19.2487516,1.88184943 Z M20.7502167,1.88041261 L20.7503149,8.73618589 C23.0310344,8.65206837 25.2141995,8.18605306 27.2377466,7.40020358 C25.5262465,5.10485044 23.3085656,3.21013823 20.7502167,1.88041261 Z M16.379293,1.8595701 L16.046701,1.9309807 C13.4700994,2.50006954 10.9929289,3.63274879 8.8121301,5.32901843 C9.61791033,5.87529652 10.4662344,6.36326286 11.3506258,6.78810414 C12.7306587,4.8701212 14.4333781,3.20096478 16.379293,1.8595701 Z M23.6193914,1.86049507 L23.7987078,1.98392461 C25.67052,3.30346706 27.3114755,4.92857255 28.6490358,6.78669007 C29.5335109,6.36307847 30.3819636,5.87531236 31.1885068,5.33003028 C28.9130183,3.5595926 26.3156801,2.40341814 23.6193914,1.86049507 Z" id="Combined-Shape" fill="#161A1D"></path>
                        <g id="Components/Icon/48x/Halal-Copy-4" transform="translate(8.500000, 26.500000)"></g>
                    </g>
                </g>
            </g>
        </g>
    </g>
</svg>