<svg xmlns="http://www.w3.org/2000/svg" width="48" height="48" viewBox="0 0 48 48">
    <path fill="currentColor" fill-rule="evenodd" d="M9.427 20a16.257 16.257 0 0 1-.64-.606c-4.04-4.04-5.468-9.703-4.284-14.89 5.09-1.163 10.637.19 14.66 4.057A11.994 11.994 0 0 1 22.8 8c3.572 0 6.78 1.56 8.978 4.037a7.961 7.961 0 0 1 1.645.337l1.835-1.835a3 3 0 1 1 5.788-1.263 3 3 0 1 1-1.263 5.789l-1.538 1.538A7.97 7.97 0 0 1 39 20h3v24H6V20h3.427zM37.5 20a6.5 6.5 0 1 0-13 0h13zm-14.919 0a14.466 14.466 0 0 0-4.967-10.825 14.502 14.502 0 0 0-1.971-1.449 15.963 15.963 0 0 1-3.29 4.768 15.968 15.968 0 0 1-4.59 3.209A14.54 14.54 0 0 0 11.842 20H22.58zM20.32 9.795a15.905 15.905 0 0 1 3.394 6.896 8.01 8.01 0 0 1 6.005-4.589A10.46 10.46 0 0 0 22.8 9.5c-.854 0-1.685.102-2.48.295zm14.583 3.22a8.04 8.04 0 0 1 2.551 2.257l1.963-1.962.913.358a1.5 1.5 0 1 0 .633-2.895l-1.34-.074-.074-1.34a1.5 1.5 0 1 0-2.894.633l.357.914-2.11 2.109zm-23.611-1.582a14.461 14.461 0 0 0 3.023-4.412 14.54 14.54 0 0 0-8.503-1.209 14.54 14.54 0 0 0 1.24 8.567 14.467 14.467 0 0 0 4.24-2.946zm1.04 5.508v-1.5a3.25 3.25 0 0 0 3.25-3.25h1.5a4.75 4.75 0 0 1-4.75 4.75zM9.75 9.5a.75.75 0 1 1 0-1.5.75.75 0 0 1 0 1.5zM7.5 25.15h33V21.5h-33v3.65zm0 1.5v10.5h5.75v-10.5H7.5zm0 12v3.85h33v-3.85h-33zm33-1.5v-10.5H28.75v10.5H40.5zm-13.25-10.5h-5.5v10.5h5.5v-10.5zm-7 0h-5.5v10.5h5.5v-10.5z"/>
</svg>
