<svg xmlns="http://www.w3.org/2000/svg" width="48" height="48" viewBox="0 0 48 48">
    <path fill="currentColor" fill-rule="evenodd" d="M12 43.5a4 4 0 0 0 4-4V35h26v4a6 6 0 0 1-6 6H12a6 6 0 0 1-6-6V3h30v1.5H7.5V39a4.5 4.5 0 0 0 4.5 4.5zm3.775 0H36a4.5 4.5 0 0 0 4.5-4.5v-2.5h-23v3a5.485 5.485 0 0 1-1.725 4zm15.924-24.1c.92.69 2.063 1.1 3.301 1.1s2.381-.41 3.3-1.1a5.5 5.5 0 1 0-6.601 0zm8.301.499V32l-5-2-5 2V19.899a7 7 0 1 1 10 0zm-1.5 1.165A6.968 6.968 0 0 1 35 22c-1.275 0-2.47-.34-3.5-.936v8.72l3.5-1.4 3.5 1.4v-8.72zM12 13.75v-1.5h12v1.5H12zm0 6v-1.5h12v1.5H12zm0 6v-1.5h12v1.5H12z"/>
</svg>
