<svg xmlns="http://www.w3.org/2000/svg" width="48" height="48" viewBox="0 0 48 48">
    <path fill="currentColor" fill-rule="evenodd" d="M23.25 6V4h1.5v2h5.45c2.11 0 4.092.544 5.814 1.5A12.007 12.007 0 0 1 42.2 18h-36c0-.254.008-.506.023-.756C6.613 10.969 11.827 6 18.2 6h5.05zm6.95 1.5h-3c-.061 0-.122 0-.183.002a12.007 12.007 0 0 1 6.09 8.998h7.487c-.728-5.088-5.104-9-10.394-9zm-12 0c-5.29 0-9.666 3.912-10.394 9h7.487a12.007 12.007 0 0 1 6.09-8.998A10.71 10.71 0 0 0 21.2 7.5h-3zm6 .435a10.512 10.512 0 0 0-7.394 8.565h14.788A10.512 10.512 0 0 0 24.2 7.935zM24.75 26H32v6H16v-6h7.25v-6h1.5v6zm0 16.5H28V44h-8v-1.5h3.25V34h1.5v8.5zM4.25 38h1.5v6h-1.5v-6zm.062-2.25l-2.046-9.594 1.468-.312 1.792 8.406h8.224V44h-1.5v-8.25H4.312zM43.75 38v6h-1.5v-6h1.5zm-.046-2.25h-7.938V44h-1.5v-9.75h8.224l1.793-8.406 1.467.312-2.046 9.594zM17.5 27.5v3h13v-3h-13z"/>
</svg>
