<svg width="40px" height="40px" viewBox="0 0 40 40" version="1.1" xmlns="http://www.w3.org/2000/svg" xmlns:xlink="http://www.w3.org/1999/xlink">
    <!-- Generator: Sketch 58 (84663) - https://sketch.com -->
    <title>Components/Icon/48x/Tobacco</title>
    <desc>Created with Sketch.</desc>
    <g id="Yuting" stroke="none" stroke-width="1" fill="none" fill-rule="evenodd">
        <g id="Group-24" transform="translate(-248.000000, -112.000000)">
            <g id="Group-22">
                <g id="Components/Icon/48x/Tobacco" transform="translate(244.000000, 108.000000)">
                    <rect id="Rectangle" x="0" y="0" width="48" height="48"></rect>
                    <path d="M24,4.25 C34.9076238,4.25 43.75,13.0923762 43.75,24 C43.75,34.9076238 34.9076238,43.75 24,43.75 C13.0923762,43.75 4.25,34.9076238 4.25,24 C4.25,18.5296034 6.47405904,13.5786636 10.0672842,10.0020736 L11.1280709,11.062614 L11.126,11.065 L23.311,23.25 L23.316,23.25 L24.815,24.749 L24.811,24.749 L28.311,28.249 L28.315,28.249 L29.815,29.749 L29.811,29.749 L36.9354073,36.8739175 C40.2199569,33.5737779 42.25,29.0239599 42.25,24 C42.25,13.9208033 34.0791967,5.75 24,5.75 C19.6975232,5.75 15.7427853,7.2388467 12.6228874,9.72943876 L11.5562118,8.6624677 C14.9525993,5.90349616 19.2832023,4.25 24,4.25 Z M10.1056245,12.1669181 C7.38949956,15.3531036 5.75,19.485089 5.75,24 C5.75,34.0791967 13.9208033,42.25 24,42.25 C28.5147588,42.25 32.6466178,40.610611 35.8327597,37.8946501 L27.687,29.749 L8.75,29.75 L8.75,23.25 L21.189,23.25 L10.1056245,12.1669181 Z M36.3914714,14 L37.5514465,14.9510298 C36.5453787,16.178135 36.5453787,17.387973 37.5764445,18.7951814 C38.7153109,20.3495169 38.9446946,21.916031 38.2518644,23.3854108 L38.25,29.75 L32.644,29.749 L31.144,28.249 L33.75,28.25 L33.75,24.75 L27.643,24.749 L26.144,23.25 L36.6006558,23.250261 C37.3917511,22.1163755 37.3202868,20.9835044 36.3664734,19.6817308 C34.9403697,17.735371 34.9403697,15.7699148 36.3914714,14 Z M18.25,24.75 L10.25,24.75 L10.25,28.25 L18.25,28.25 L18.25,24.75 Z M35.25,24.75 L35.25,28.25 L36.75,28.25 L36.75,24.75 L35.25,24.75 Z M26.187,28.249 L22.688,24.749 L19.75,24.75 L19.75,28.25 L26.187,28.249 Z M32.3914714,12 L33.5514465,12.9510298 C32.5453787,14.178135 32.5453787,15.387973 33.5764445,16.7951814 C35.0025482,18.7415412 35.0025482,20.7069974 33.5514465,22.4769122 L32.3914714,21.5258824 C33.3975392,20.2987772 33.3975392,19.0889392 32.3664734,17.6817308 C30.9403697,15.735371 30.9403697,13.7699148 32.3914714,12 Z" id="Combined-Shape" fill="currentColor" fill-rule="nonzero"></path>
                </g>
            </g>
        </g>
    </g>
</svg>