<svg xmlns="http://www.w3.org/2000/svg" width="48" height="48" viewBox="0 0 48 48">
    <path fill="currentColor" fill-rule="evenodd" d="M37.135 22.865a4.865 4.865 0 0 1-4.378-2.742 4.865 4.865 0 0 1-8.757 0 4.865 4.865 0 0 1-8.757 0A4.865 4.865 0 0 1 9.5 22.671V36H8V22h.095A4.86 4.86 0 0 1 6 18l2-8V5h32v5l2 8a4.865 4.865 0 0 1-4.865 4.865zM40.5 18h-6.73a3.365 3.365 0 0 0 6.73 0zm-8.757 0h-6.73a3.365 3.365 0 0 0 6.73 0zm-8.757 0h-6.73a3.365 3.365 0 0 0 6.73 0zm-8.756 0H7.5a3.365 3.365 0 0 0 6.73 0zm17.27-6.5H9.171l-1.25 5H40.08l-1.25-5H31.5zM9.5 10h29V6.5h-29V10zM12 38V25h9v11h-1.5v-9.5h-6V38h25V24H40v15.5H6.5v2h35V39H43v4H5v-5h7zm13.5-11.5v7h9v-7h-9zM24 25h12v10H24V25z"/>
</svg>
