<svg xmlns="http://www.w3.org/2000/svg" width="48" height="48" viewBox="0 0 48 48">
    <path fill="currentColor" fill-rule="evenodd" d="M34 46H14v-4.1a5.002 5.002 0 0 1-4-4.9V17a5 5 0 0 1 5-5h5V8h8v4h2.5V3.5h-13V10H16V2h16v10h1a5 5 0 0 1 5 5v20a5.002 5.002 0 0 1-4 4.9V46zm-1.5-4h-17v2.5h17V42zm-6-30V9.5h-5V12h5zM15 13.5a3.5 3.5 0 0 0-3.5 3.5v20a3.5 3.5 0 0 0 3.5 3.5h18a3.5 3.5 0 0 0 3.5-3.5V17a3.5 3.5 0 0 0-3.5-3.5H15zm8.173 18.595a3.779 3.779 0 0 0-1.114 2.452l-.071 1.135-1.016-.513a6.639 6.639 0 0 1-3.649-5.968c-.022-2.387 1.562-4.704 3.772-6.645a4.284 4.284 0 0 0 1.617-3.101l.076-1.26 1.07.67c1.1.687 1.823 1.708 2.22 2.95.361 1.127.425 2.298.322 3.353a5.41 5.41 0 0 1-.045.358l-1.478-.252c.006-.039.018-.125.03-.252.085-.87.032-1.847-.257-2.749a4.194 4.194 0 0 0-.696-1.341 5.719 5.719 0 0 1-1.898 2.775c-1.88 1.652-3.25 3.657-3.233 5.493a5.145 5.145 0 0 0 1.95 4.07 5.273 5.273 0 0 1 1.344-2.24 3.502 3.502 0 0 0 1.012-2.127l.105-1.04.952.434c1.604.73 2.771 2.923 3.136 4.905a4.76 4.76 0 0 0 1.828-3.554 7.814 7.814 0 0 0-1.798-5.225l1.154-.958A9.319 9.319 0 0 1 30.65 29.7a6.266 6.266 0 0 1-3.643 5.437l-1.063.49v-1.183c0-1.33-.67-3.176-1.598-4.184a5.009 5.009 0 0 1-1.172 1.834z"/>
</svg>
