<svg xmlns="http://www.w3.org/2000/svg" width="48" height="48" viewBox="0 0 48 48">
    <path fill="currentColor" fill-rule="evenodd" d="M10.645 38.48a6 6 0 0 1-6.888-9.63l8.486-8.486-.002.036 3.255-3.254a4.5 4.5 0 0 0-6.364-6.364l-6.056 6.056L2 15.792l6.071-6.07a6 6 0 0 1 8.485 8.485l-5.948 5.948-.017-.018-5.773 5.773a4.5 4.5 0 0 0 4.684 7.426l-2.23-2.23 13.58-15.56-.004-.012 3.227-3.688a8.985 8.985 0 0 1 1.96-6.503l-1.45-1.45 1.06-1.06 1.427 1.426a9 9 0 0 1 12.704 12.704l1.426 1.426-1.06 1.06-1.45-1.448a8.985 8.985 0 0 1-6.503 1.96l-3.688 3.226-.012-.004-15.56 13.58-2.284-2.284zM38.713 19.9A7.5 7.5 0 0 0 28.135 9.322l1.753 1.754-1.06 1.06-1.726-1.725a7.464 7.464 0 0 0-1.515 3.707 7.543 7.543 0 0 0 .066 2.209 7.466 7.466 0 0 0 2.079 3.976 7.465 7.465 0 0 0 3.976 2.08c.73.13 1.475.152 2.21.065a7.464 7.464 0 0 0 3.706-1.515l-6.182-6.183 1.06-1.06 6.211 6.21zM24.45 17.706l-1.854 2.124a11.475 11.475 0 0 0 2.308 3.302c.971.97 2.086 1.746 3.302 2.308l2.125-1.854a8.961 8.961 0 0 1-3.659-2.222 8.961 8.961 0 0 1-2.222-3.658zm2.532 8.802a12.996 12.996 0 0 1-3.138-2.316c-.95-.95-1.722-2.009-2.316-3.138L9.324 35.036l3.675 3.675L26.98 26.508zM44.5 32.841v-5.103l-9 1.497v8.479l-.008.001A4 4 0 1 1 34 34.841v-6.877l10.5-1.75.247-.04v-.001L46 25.964v10a4 4 0 1 1-1.5-3.123zm-13 7.623a2.5 2.5 0 1 0 0-5 2.5 2.5 0 0 0 0 5zm10.5-2a2.5 2.5 0 1 0 0-5 2.5 2.5 0 0 0 0 5z"/>
</svg>
