<svg xmlns="http://www.w3.org/2000/svg" xmlns:xlink="http://www.w3.org/1999/xlink" width="32" height="32" viewBox="0 0 32 32">
    <defs>
        <path id="a" d="M30.88 28.526l-14-26c-.349-.647-1.412-.647-1.761 0l-14 26A.999.999 0 0 0 2 30h28a.999.999 0 0 0 .88-1.474zM17.714 11L17 21h-2l-.714-10h3.428zM16 27a1.778 1.778 0 1 1 0-3.556A1.778 1.778 0 0 1 16 27z"/>
    </defs>
    <g fill="none" fill-rule="evenodd">
        <mask id="b" fill="#fff">
            <use xlink:href="#a"/>
        </mask>
        <use fill="currentColor" fill-rule="nonzero" xlink:href="#a"/>
        <g fill="transparent" mask="url(#b)">
            <path d="M3 0h26a3 3 0 0 1 3 3v26a3 3 0 0 1-3 3H3a3 3 0 0 1-3-3V3a3 3 0 0 1 3-3z"/>
        </g>
    </g>
</svg>
