<svg xmlns="http://www.w3.org/2000/svg" xmlns:xlink="http://www.w3.org/1999/xlink" width="24" height="24" viewBox="0 0 24 24">
    <defs>
        <path id="a" d="M21 11v10H3v-9h7v8h4V10h7v1zm-1 0h-5v9h5v-9zM9 20v-7H4v7h5zm6-16H8v7H7V3h9v6h-1V4zM5 15h3v1H5v-1zm11 0h3v1h-3v-1zm0-2h3v1h-3v-1zM5 17h3v1H5v-1zm11 0h3v1h-3v-1z"/>
    </defs>
    <g fill="currentColor" fill-rule="evenodd">
        <mask id="b" fill="#fff">
            <use xlink:href="#a"/>
        </mask>
        <use fill="currentColor" xlink:href="#a"/>
        <g fill="transparent" mask="url(#b)">
            <path d="M3 0h18a3 3 0 0 1 3 3v18a3 3 0 0 1-3 3H3a3 3 0 0 1-3-3V3a3 3 0 0 1 3-3z"/>
        </g>
    </g>
</svg>
