<svg xmlns="http://www.w3.org/2000/svg" width="24" height="24" viewBox="0 0 24 24">
    <path fill="#161A1D" fill-rule="evenodd" d="M22.563 14.751l1.276-.926-.295 3-2.944-.648 1.154-.838a3.502 3.502 0 0 0-6.144 1.286l-.968-.25a4.502 4.502 0 0 1 7.921-1.624zm-7.037 6.609l-1.226.89.295-3 2.944.647-1.202.874a3.502 3.502 0 0 0 6.053-1.396l.968.25a4.502 4.502 0 0 1-7.832 1.735zm-3.171.788l.352.355-.71.704-.352-.355a50.054 50.054 0 0 1-1.267-1.354 52.519 52.519 0 0 1-2.776-3.344c-.994-1.308-1.847-2.58-2.516-3.787C4.062 12.519 3.5 10.884 3.5 9.5 3.5 4.544 7.431 1 12 1s8.5 3.544 8.5 8.5c0 .347-.036.71-.105 1.09l-.09.492-.984-.18.09-.492c.06-.322.089-.626.089-.91C19.5 5.12 16.038 2 12 2S4.5 5.12 4.5 9.5c0 1.181.512 2.67 1.46 4.382.644 1.161 1.471 2.395 2.438 3.667a51.533 51.533 0 0 0 3.957 4.599zM12 13a3.5 3.5 0 1 1 0-7 3.5 3.5 0 0 1 0 7zm0-1a2.5 2.5 0 1 0 0-5 2.5 2.5 0 0 0 0 5z"/>
</svg>
