<svg xmlns="http://www.w3.org/2000/svg" xmlns:xlink="http://www.w3.org/1999/xlink" width="24" height="24" viewBox="0 0 24 24">
    <defs>
        <path id="a" d="M12 22C6.477 22 2 17.523 2 12S6.477 2 12 2s10 4.477 10 10-4.477 10-10 10zm0-1a9 9 0 1 0 0-18 9 9 0 0 0 0 18zm4.646-12.464l.708.708-6.57 6.57-4.138-4.138.708-.707 3.43 3.43 5.862-5.863z"/>
    </defs>
    <g fill="currentColor" fill-rule="evenodd">
        <mask id="b" fill="currentColor">
            <use xlink:href="#a"/>
        </mask>
        <use fill="currentColor" fill-rule="nonzero" xlink:href="#a"/>
        <g fill="transparent" mask="url(#b)">
            <path d="M3 0h18a3 3 0 0 1 3 3v18a3 3 0 0 1-3 3H3a3 3 0 0 1-3-3V3a3 3 0 0 1 3-3z"/>
        </g>
    </g>
</svg>
