<svg xmlns="http://www.w3.org/2000/svg" width="24" height="24" viewBox="0 0 24 24">
    <path fill="#161A1D" fill-rule="evenodd" d="M4.9 10.002V9A4.84 4.84 0 0 1 5 9v.001c1 .02 1.79.356 2.414.974.486.48.814 1.034 1.24 1.967.31.675 1.047 1.08 2.546 1.159v.998c-1.831-.097-2.96-.66-3.455-1.741-.38-.83-.657-1.3-1.034-1.672-.447-.442-.998-.674-1.753-.686A2 2 0 0 0 3 12v8h4v-4.88h1V21H2v-9a3 3 0 0 1 2.9-2.998v1zM5 7a1.5 1.5 0 1 0 0-3 1.5 1.5 0 0 0 0 3zm0 1a2.5 2.5 0 1 1 0-5 2.5 2.5 0 0 1 0 5zm14.177 2.002v-1C20.8 9.054 22.1 10.377 22.1 12v9h-6.047v-5.88h1.008V20h4.031v-8c0-1.09-.88-1.977-1.973-2-.761.012-1.317.244-1.767.686-.38.373-.66.843-1.043 1.672-.498 1.082-1.664 1.644-3.509 1.741v-.998c1.51-.08 2.282-.484 2.593-1.159.43-.933.76-1.486 1.25-1.967.63-.618 1.425-.953 2.433-.974V9a3.11 3.11 0 0 1 .101 0v1.002zM19.077 7c.834 0 1.511-.672 1.511-1.5S19.911 4 19.076 4s-1.511.672-1.511 1.5S18.24 7 19.076 7zm0 1a2.51 2.51 0 0 1-2.52-2.5 2.51 2.51 0 0 1 2.52-2.5 2.51 2.51 0 0 1 2.52 2.5 2.51 2.51 0 0 1-2.52 2.5z"/>
</svg>
