<svg xmlns="http://www.w3.org/2000/svg" width="24" height="24" viewBox="0 0 24 24">
    <path fill="currentColor" fill-rule="evenodd" d="M12.5 2.012a10 10 0 0 1 9.488 9.488H22v1h-.012a10 10 0 0 1-9.488 9.488V22h-1v-.012A10 10 0 0 1 2.012 12.5H2v-1h.012A10 10 0 0 1 11.5 2.012V2h1v.012zm0 1.002v2.622h-1V3.014A9.001 9.001 0 0 0 3.014 11.5h2.622v1H3.014a9.001 9.001 0 0 0 8.486 8.486v-2.622h1v2.622a9.001 9.001 0 0 0 8.486-8.486h-2.622v-1h2.622A9.001 9.001 0 0 0 12.5 3.014zm3.636 8.486v1h-4.404L7.67 6.407l.832-.555 3.766 5.648h3.868z"/>
</svg>
