<svg xmlns="http://www.w3.org/2000/svg" width="48" height="48" viewBox="0 0 48 48">
    <path fill="currentColor" fill-rule="evenodd" d="M14.668 18.376A4.48 4.48 0 0 0 12 17.5a4.48 4.48 0 0 0-2.668.876A4.494 4.494 0 0 0 7.5 22v8.12l8.992-8.272.006.006a4.494 4.494 0 0 0-1.83-3.478zm0-1.751A4.497 4.497 0 0 0 16.5 13c0-.785-.2-1.537-.573-2.2H8.073A4.478 4.478 0 0 0 7.5 13c0 1.458.7 2.79 1.832 3.625.803-.4 1.71-.625 2.668-.625.959 0 1.865.225 2.668.625zm1.3.875A5.986 5.986 0 0 1 18 22v18H6V22c0-1.792.786-3.4 2.031-4.5A5.986 5.986 0 0 1 6 13c0-.777.148-1.519.416-2.2H6V5l14.19-3-1.622 5.314L21 10.8h-3.416c.268.681.416 1.423.416 2.2 0 1.792-.786 3.4-2.031 4.5zM7.5 6.216V9.3h10.624L16.92 7.575l1.093-3.582L7.5 6.216zm9 28.484V23.88l-8.992 8.272-.008-.009V34.7h9zm0 1.5h-9v2.3h9v-2.3zm17.25 5.05v-5.5h-2.5v5.5h2.5zm1.5 0h5.25v-5.5h-5.25v5.5zm-1.5-14.5v-5.5h-2.5v5.5h2.5zm1.5 0h5.25v-5.5h-5.25v5.5zm-5.5 14.5v-5.5h-2.5v5.5h2.5zm0-14.5v-5.5h-2.5v5.5h2.5zm-4 14.5v-5.5H23.5v-1.5h17V32h-17v13h17v-2.25h-17v-1.5h2.25zm0-14.5v-5.5H23.5v-1.5h17V17.5h-17v13h17v-2.25h-17v-1.5h2.25zM42 16v30.5H22V16h20z"/>
</svg>
