<svg xmlns="http://www.w3.org/2000/svg" xmlns:xlink="http://www.w3.org/1999/xlink" width="24" height="24" viewBox="0 0 24 24">
    <defs>
        <path id="a" d="M1 1v6h6V1H1zM0 0h8v8H0V0zm1 11v6h6v-6H1zm-1-1h8v8H0v-8zm11-9v6h6V1h-6zm-1-1h8v8h-8V0zm1 11v6h6v-6h-6zm-1-1h8v8h-8v-8z"/>
    </defs>
    <g fill="currentColor" fill-rule="evenodd" transform="translate(3 3)">
        <mask id="b" fill="currentColor">
            <use xlink:href="#a"/>
        </mask>
        <use fill="currentColor" fill-rule="nonzero" xlink:href="#a"/>
        <g fill="transparent" mask="url(#b)">
            <path d="M0-3h18a3 3 0 0 1 3 3v18a3 3 0 0 1-3 3H0a3 3 0 0 1-3-3V0a3 3 0 0 1 3-3z"/>
        </g>
    </g>
</svg>
