<svg xmlns="http://www.w3.org/2000/svg" xmlns:xlink="http://www.w3.org/1999/xlink" width="16" height="16" viewBox="0 0 16 16">
    <defs>
        <path id="a" d="M13.143 1H2.857C2.343 1 2 1.35 2 1.875v12.25c0 .525.343.875.857.875h10.286c.514 0 .857-.35.857-.875V1.875C14 1.35 13.657 1 13.143 1zM8 11H4v-1h4v1zm4-3H4V7h8v1zm0-3H4V4h8v1z"/>
    </defs>
    <g fill="currentColor" fill-rule="evenodd">
        <mask id="b" fill="currentColor">
            <use xlink:href="#a"/>
        </mask>
        <use fill="currentColor" fill-rule="nonzero" xlink:href="#a"/>
        <g fill="transparent" mask="url(#b)">
            <path d="M3 0h10a3 3 0 0 1 3 3v10a3 3 0 0 1-3 3H3a3 3 0 0 1-3-3V3a3 3 0 0 1 3-3z"/>
        </g>
    </g>
</svg>
