<svg xmlns="http://www.w3.org/2000/svg" width="48" height="48" viewBox="0 0 48 48">
    <path fill="currentColor" fill-rule="evenodd" d="M24.5 36.5H31V38h-8V20h8v1.5h-6.5v15zm7.743-24.862c.335-.378.63-.793.877-1.237A8.976 8.976 0 0 1 36 17v29H18V17a8.976 8.976 0 0 1 2.88-6.6c.248.445.542.86.877 1.238A7.477 7.477 0 0 0 19.5 17v27.5h15V17c0-2.101-.864-4-2.257-5.362zM10.25 22v-4c0-6.49 5.26-11.75 11.75-11.75h.056a5.001 5.001 0 0 1 9.888 0H42v1.5h-5.13l3.281 3.281-1.06 1.06-4.342-4.341h-2.805a5.001 5.001 0 0 1-9.888 0H22c-5.66 0-10.25 4.59-10.25 10.25v4H14l2 16H6l2-16h2.25zm4.05 14.5l-1.624-13H9.324L7.7 36.5h6.602zM30.42 7.75a3.513 3.513 0 0 0 0-1.5 3.501 3.501 0 0 0-6.84 1.5 3.501 3.501 0 0 0 6.84 0zM28 27.8v-1.5h3v1.5h-3zm0 4v-1.5h3v1.5h-3z"/>
</svg>
