<svg xmlns="http://www.w3.org/2000/svg" width="24" height="24" viewBox="0 0 24 24">
    <g fill="none" fill-rule="evenodd">
        <path d="M0 0h24v24H0z"/>
        <path fill="currentColor" d="M18.63 13.649c.208 0 .415-.017.62-.05v7.387c0 .311-.277.564-.62.564h-4.646v-3.668c0-.156-.139-.282-.31-.282h-3.098c-.171 0-.31.126-.31.282v3.668H5.62c-.343 0-.62-.253-.62-.564v-7.389c.212.034.426.051.64.052A4.064 4.064 0 0 0 7.779 13c.636.423 1.403.65 2.19.649A3.99 3.99 0 0 0 12.125 13c.632.416 1.39.643 2.171.649.78 0 1.542-.229 2.172-.649.628.411 1.38.64 2.153.649h.01zm2.401-4.89c.038.059.008 1.17 0 1.239-.163 1.51-1.41 2.653-2.895 2.652a2.934 2.934 0 0 1-2.038-.867 2.851 2.851 0 0 1-2.041.867 2.914 2.914 0 0 1-2.04-.87 2.91 2.91 0 0 1-2.036.87 2.853 2.853 0 0 1-2.048-.869 2.976 2.976 0 0 1-2.03.869c-1.486.004-2.737-1.14-2.901-2.652-.008-.07.009-1.18.047-1.239l3.48-2.626S6.674 6 6.772 6h10.49c.097 0 .242.133.242.133l3.527 2.626zM6.62 3h11v2h-11V3z"/>
    </g>
</svg>
