<svg xmlns="http://www.w3.org/2000/svg" width="24" height="24" viewBox="0 0 24 24">
    <path fill="#161A1D" fill-rule="evenodd" d="M6.512 7.201a5.946 5.946 0 0 1-.012-.004C6.69 4.295 9.074 2 11.988 2A5.534 5.534 0 0 1 12 2c3.038 0 5.5 2.494 5.5 5.571 0 2.762-.871 4.866-2.216 6.118l4.825 3.217A2 2 0 0 1 21 18.57V22H3v-3.43a2 2 0 0 1 .89-1.664l4.826-3.217C7.371 12.437 6.5 10.333 6.5 7.571c0-.124.004-.248.012-.37zm.99.234l-.002.136C7.5 11.522 9.431 14 12 14s4.5-2.478 4.5-6.429c0-.067-.001-.133-.004-.2a5.983 5.983 0 0 1-3.71-1.79 5.984 5.984 0 0 1-5.284 1.854zM10.587 21h2.726l-.834-2.5h-1.058l-.834 2.5zm3.78 0H20v-2.43a1 1 0 0 0-.445-.832l-5.116-3.41A4.7 4.7 0 0 1 12 15a4.7 4.7 0 0 1-2.439-.672l-5.116 3.41A1 1 0 0 0 4 18.57V21h5.533l1.167-3.5h2.5l1.167 3.5zm-2.38-18c-2.09 0-3.865 1.455-4.361 3.442a4.983 4.983 0 0 0 4.427-1.541l.716-.77.733.754a4.98 4.98 0 0 0 2.821 1.457C15.794 4.41 14.048 3 11.988 3z"/>
</svg>
