<svg xmlns="http://www.w3.org/2000/svg" width="24" height="24" viewBox="0 0 24 24">
    <path fill="currentColor" fill-rule="evenodd"
          d="M3 10h18V7H3v3zm19-6.5V11H3v4.5a.5.5 0 0 0 .5.5h7.137v1H3.5A1.5 1.5 0 0 1 2 15.5v-12A1.5 1.5 0 0 1 3.5 2h17A1.5 1.5 0 0 1 22 3.5zM3 6h18V3.5a.5.5 0 0 0-.5-.5h-17a.5.5 0 0 0-.5.5V6zm17.763 8.751l1.276-.926-.295 3-2.944-.648 1.154-.838a3.502 3.502 0 0 0-6.144 1.286l-.968-.25a4.502 4.502 0 0 1 7.921-1.624zm-7.037 5.609l-1.226.89.295-3 2.944.647-1.202.874a3.502 3.502 0 0 0 6.053-1.396l.968.25a4.502 4.502 0 0 1-7.832 1.735z"/>
</svg>
