<?xml version="1.0" encoding="UTF-8"?>
<svg width="24px" height="24px" viewBox="0 0 24 24" version="1.1" xmlns="http://www.w3.org/2000/svg" xmlns:xlink="http://www.w3.org/1999/xlink">
    <!-- Generator: sketchtool 52.4 (67378) - http://www.bohemiancoding.com/sketch -->
    <title>AED84F2B-A1A7-4E19-AFC5-8C7FDC39E7B6</title>
    <desc>Created with sketchtool.</desc>
    <defs>
        <path d="M12,22 C6.4771525,22 2,17.5228475 2,12 C2,6.4771525 6.4771525,2 12,2 C17.5228475,2 22,6.4771525 22,12 C22,17.5228475 17.5228475,22 12,22 Z M10.9762614,13.7395441 L13.0054103,13.7395441 L13.0054103,6.53571429 L10.9762614,6.53571429 L10.9762614,13.7395441 Z M11.9943465,17.4608207 C12.6332827,17.4608207 13.1528571,16.9412462 13.1528571,16.3163526 C13.1528571,15.6703951 12.6332827,15.1578419 11.9943465,15.1578419 C11.3624316,15.1578419 10.8428571,15.6703951 10.8428571,16.3163526 C10.8428571,16.9412462 11.3624316,17.4608207 11.9943465,17.4608207 Z" id="path-1"></path>
    </defs>
    <g id="Symbols" stroke="none" stroke-width="1" fill="none" fill-rule="evenodd">
        <g id="Components/Icon/24x/Error">
            <mask id="mask-2" fill="currentColor">
                <use xlink:href="#path-1"></use>
            </mask>
            <use id="Colour" fill="currentColor" xlink:href="#path-1"></use>
        </g>
    </g>
</svg>
