<svg xmlns="http://www.w3.org/2000/svg" width="24" height="24" viewBox="0 0 24 24">
    <path fill="#161A1D" fill-rule="evenodd" d="M4.126 19h15.748a4.001 4.001 0 0 0-1.875-2.465l-.499-.29V10.5a5.501 5.501 0 0 0-3.385-5.079l-.615-.256v-.666a1.5 1.5 0 0 0-3 0v.666l-.615.256A5.501 5.501 0 0 0 6.5 10.5v5.746l-.5.289A4.001 4.001 0 0 0 4.127 19zm10.703 1a3.001 3.001 0 0 1-5.658 0H3a4.998 4.998 0 0 1 2.5-4.331V10.5a6.502 6.502 0 0 1 4-6.002 2.5 2.5 0 0 1 5 0c2.349.98 4 3.298 4 6.002v5.169A4.998 4.998 0 0 1 21 20h-6.17zm-1.097 0h-3.464a2 2 0 0 0 3.464 0z"/>
</svg>
