<svg xmlns="http://www.w3.org/2000/svg" xmlns:xlink="http://www.w3.org/1999/xlink" width="24" height="24" viewBox="0 0 24 24">
    <defs>
        <path id="a" d="M10.999 12.001h1v3.429c0 1.054 1.978 2.071 4.5 2.071 2.521 0 4.5-1.017 4.5-2.071V12h1v3.429c0 1.786-2.498 3.071-5.5 3.071s-5.5-1.285-5.5-3.071V12zm0 3.5h1v3.429c0 1.054 1.978 2.071 4.5 2.071 2.521 0 4.5-1.017 4.5-2.071V15.5h1v3.429c0 1.786-2.498 3.071-5.5 3.071s-5.5-1.285-5.5-3.071V15.5zm5.5-.5c-3.002 0-5.5-1.249-5.5-3s2.498-3 5.5-3 5.5 1.249 5.5 3-2.498 3-5.5 3zm0-1c2.52 0 4.5-.99 4.5-2s-1.98-2-4.5-2-4.5.99-4.5 2 1.98 2 4.5 2zm-7.5-5v-3h1v4h-4v-1h3zm.5 7h.5v1h-.5a7.5 7.5 0 1 1 7.19-9.642l.142.48-.958.285-.143-.48a6.5 6.5 0 1 0-6.231 8.357z"/>
    </defs>
    <g fill="currentColor" fill-rule="evenodd">
        <mask id="b" fill="currentColor">
            <use xlink:href="#a"/>
        </mask>
        <use fill="currentColor" fill-rule="nonzero" xlink:href="#a"/>
        <g fill="transparent" mask="url(#b)">
            <path d="M3 0h18a3 3 0 0 1 3 3v18a3 3 0 0 1-3 3H3a3 3 0 0 1-3-3V3a3 3 0 0 1 3-3z"/>
        </g>
    </g>
</svg>
