<svg xmlns="http://www.w3.org/2000/svg" width="24" height="24" viewBox="0 0 24 24">
    <path fill="currentColor" fill-rule="evenodd" d="M15.886 13.625l4.594 4.593-2.832 2.832h-.207C9.438 21.05 2.95 14.562 2.95 6.56v-.208L5.782 3.52l4.593 4.594-2.332 2.331 5.512 5.512 2.331-2.332zm-2.331 3.746l-6.926-6.926 2.332-2.331-3.18-3.18-1.83 1.83c.11 7.288 5.997 13.176 13.284 13.284l1.83-1.83-3.179-3.18-2.331 2.333zm0-13.421h-.5v-1h.5a7.495 7.495 0 0 1 7.495 7.495v.5h-1v-.5a6.495 6.495 0 0 0-6.495-6.495zm0 3.11h-.5v-1h.5a4.386 4.386 0 0 1 4.386 4.385v.5h-1v-.5a3.386 3.386 0 0 0-3.386-3.386z"/>
</svg>
