<svg xmlns="http://www.w3.org/2000/svg" xmlns:xlink="http://www.w3.org/1999/xlink" width="24" height="24" viewBox="0 0 24 24">
    <defs>
        <path id="a" d="M10 20C4.477 20 0 15.523 0 10S4.477 0 10 0s10 4.477 10 10-4.477 10-10 10zm6.864-3.195h-1v-.677c0-.8-.429-1.537-1.123-1.934l-2.927-1.675.497-.868 2.926 1.675a3.227 3.227 0 0 1 1.627 2.802v.677zm-9.18-5.155l.498.867-2.923 1.677a2.227 2.227 0 0 0-1.123 1.934v.677h-1v-.677c0-1.158.621-2.228 1.626-2.802l2.923-1.676zm2.316.986A2.636 2.636 0 0 0 12.636 10V8.182a2.636 2.636 0 1 0-5.272 0V10A2.636 2.636 0 0 0 10 12.636zm0 1A3.636 3.636 0 0 1 6.364 10V8.182a3.636 3.636 0 0 1 7.272 0V10A3.636 3.636 0 0 1 10 13.636zM10 19a9 9 0 1 0 0-18 9 9 0 0 0 0 18z"/>
    </defs>
    <g fill="currentColor" fill-rule="evenodd" transform="translate(2 2)">
        <mask id="b" fill="currentColor">
            <use xlink:href="#a"/>
        </mask>
        <use fill="currentColor" fill-rule="nonzero" xlink:href="#a"/>
        <g fill="transparent" mask="url(#b)">
            <path d="M1-2h18a3 3 0 0 1 3 3v18a3 3 0 0 1-3 3H1a3 3 0 0 1-3-3V1a3 3 0 0 1 3-3z"/>
        </g>
    </g>
</svg>
