<svg xmlns="http://www.w3.org/2000/svg" xmlns:xlink="http://www.w3.org/1999/xlink" width="24" height="24" viewBox="0 0 24 24">
    <defs>
        <path id="a" d="M18.096 20.303a3.5 3.5 0 1 1 .707-.707l2.55 2.55-.707.708-2.55-2.55zm-5.741 1.845l.352.355-.71.704-.352-.355a50.054 50.054 0 0 1-1.267-1.354 52.519 52.519 0 0 1-2.776-3.344c-.994-1.308-1.847-2.58-2.516-3.787C4.062 12.519 3.5 10.884 3.5 9.5 3.5 4.544 7.431 1 12 1s8.5 3.544 8.5 8.5c0 .948-.265 2.016-.763 3.195l-.195.46-.921-.39.194-.46c.45-1.065.685-2.008.685-2.805C19.5 5.12 16.038 2 12 2S4.5 5.12 4.5 9.5c0 1.181.512 2.67 1.46 4.382.644 1.161 1.471 2.395 2.438 3.667a51.533 51.533 0 0 0 3.957 4.599zM16 20a2.5 2.5 0 1 0 0-5 2.5 2.5 0 0 0 0 5zm-4-7a3.5 3.5 0 1 1 0-7 3.5 3.5 0 0 1 0 7zm0-1a2.5 2.5 0 1 0 0-5 2.5 2.5 0 0 0 0 5z"/>
    </defs>
    <g fill="currentColor" fill-rule="evenodd">
        <mask id="b" fill="currentColor">
            <use xlink:href="#a"/>
        </mask>
        <use fill="currentColor" fill-rule="nonzero" xlink:href="#a"/>
        <g fill="transparent" mask="url(#b)">
            <rect width="24" height="24" rx="3"/>
        </g>
    </g>
</svg>
