<?xml version="1.0" encoding="UTF-8"?>
<svg width="46px" height="43px" viewBox="0 0 46 43" version="1.1" xmlns="http://www.w3.org/2000/svg" xmlns:xlink="http://www.w3.org/1999/xlink">
    <!-- Generator: Sketch 55.2 (78181) - https://sketchapp.com -->
    <title>subtitles</title>
    <desc>Created with Sketch.</desc>
    <g id="Min" stroke="none" stroke-width="1" fill="none" fill-rule="evenodd">
        <g id="01_Level1-landing-d" transform="translate(-157.000000, -1358.000000)">
            <g id="G2B" transform="translate(148.000000, 1043.000000)">
                <g id="G2B-benefits" transform="translate(2.000000, 306.000000)">
                    <g id="Benefit-1">
                        <g id="subtitles">
                            <rect id="bound" x="0" y="0" width="60" height="60"></rect>
                            <g transform="translate(8.000000, 10.000000)" id="Path" stroke="#313840" stroke-linecap="square" stroke-width="2">
                                <path d="M4,0 L40,0 C42.209139,0 44,1.790861 44,4 L44,26 C44,28.209139 42.209139,30 40,30 L24,30 L10,40 L10,30 L4,30 C1.790861,30 0,28.209139 0,26 L0,4 C0,1.790861 1.790861,0 4,0 Z"></path>
                            </g>
                            <path d="M14,33 L27,33" id="Path" stroke="#49009E" stroke-width="2" stroke-linecap="square"></path>
                            <path d="M33,33 L46,33" id="Path" stroke="#49009E" stroke-width="2" stroke-linecap="square"></path>
                            <path d="M14,27 L37,27" id="Path" stroke="#49009E" stroke-width="2" stroke-linecap="square"></path>
                            <path d="M43,27 L46,27" id="Path" stroke="#49009E" stroke-width="2" stroke-linecap="square"></path>
                        </g>
                    </g>
                </g>
            </g>
        </g>
    </g>
</svg>