<?xml version="1.0" encoding="UTF-8"?>
<svg width="45px" height="45px" viewBox="0 0 45 45" version="1.1" xmlns="http://www.w3.org/2000/svg" xmlns:xlink="http://www.w3.org/1999/xlink">
    <!-- Generator: Sketch 55.2 (78181) - https://sketchapp.com -->
    <title>Group 2</title>
    <desc>Created with Sketch.</desc>
    <defs>
        <linearGradient x1="-32.9402744%" y1="-3411.32812%" x2="134.623832%" y2="100%" id="linearGradient-1">
            <stop stop-color="#6600FF" offset="0%"></stop>
            <stop stop-color="#9955EE" offset="100%"></stop>
        </linearGradient>
        <linearGradient x1="-90.8949256%" y1="-3411.32812%" x2="193.754871%" y2="100%" id="linearGradient-2">
            <stop stop-color="#6600FF" offset="0%"></stop>
            <stop stop-color="#9955EE" offset="100%"></stop>
        </linearGradient>
        <linearGradient x1="-65.4781607%" y1="-3411.32812%" x2="167.822186%" y2="100%" id="linearGradient-3">
            <stop stop-color="#6600FF" offset="0%"></stop>
            <stop stop-color="#9955EE" offset="100%"></stop>
        </linearGradient>
    </defs>
    <g id="Min" stroke="none" stroke-width="1" fill="none" fill-rule="evenodd">
        <g id="01_Level1-landing-d" transform="translate(-547.000000, -1357.000000)">
            <g id="G2B" transform="translate(148.000000, 1043.000000)">
                <g id="G2B-benefits" transform="translate(2.000000, 306.000000)">
                    <g id="Group-3" transform="translate(389.000000, 0.000000)">
                        <g id="Group-2">
                            <rect id="Bound" x="0" y="0" width="60" height="60"></rect>
                            <g id="list-numbers" transform="translate(8.000000, 8.000000)" fill-rule="nonzero">
                                <path d="M7.518,9.763 L6.041,9.637 C5.771,9.619 5.753,9.565 5.753,9.277 L5.753,0.814 L1.432,0.814 L1.232,2.291 L2.8,2.615 C2.981,2.669 3.034,2.777 3.034,2.993 L3.034,9.277 C3.034,9.547 2.998,9.619 2.746,9.637 L1.2,9.763 L1.2,11.186 L7.518,11.186 L7.518,9.763 Z" id="Path" fill="url(#linearGradient-1)"></path>
                                <path d="M3.989,18.624 C4.943,18.624 5.267,19.11 5.267,19.777 C5.267,20.803 4.493,21.523 2.674,23.288 L0.261,25.646 L0.261,27.321 L8.58,27.321 L8.58,23.936 L6.672,23.936 L6.42,25.358 C6.383,25.539 6.311,25.575 6.131,25.575 L3.484,25.575 L5.519,23.629 C6.834,22.37 8,21.253 8,19.56 C8,17.867 7.009,16.679 4.218,16.679 C2.328,16.679 0.149,17.148 0.131,20.01 L2.58,20.227 C2.584,18.949 3,18.624 3.989,18.624 Z" id="Path" fill="url(#linearGradient-2)"></path>
                                <path d="M6.338,37.8 L6.338,37.73 C7.5946112,37.3848963 8.45090396,36.2234639 8.409,34.921 C8.409,32.995 7.347,31.932 4.574,31.932 C2.684,31.932 0.541,32.418 0.541,35.263 L3.008,35.48 C3.008,34.202 3.476,33.88 4.447,33.88 C5.456,33.88 5.762,34.438 5.762,35.123 C5.762,36.275 5.062,36.905 3.762,37.067 L2.879,37.175 L2.879,38.975 C3.31858755,38.8926249 3.76476318,38.8504507 4.212,38.849 C5.328,38.849 6.012,39.299 6.012,40.398 C6.012,41.659 5.147,42.018 4.139,42.018 C3.11062335,42.0268562 2.12771935,41.5947425 1.439,40.831 L0,42.412 C1.16637077,43.5340636 2.73979871,44.132089 4.357,44.068 C6.933,44.068 8.715,42.952 8.715,40.575 C8.77968148,39.8892008 8.56315973,39.2065271 8.11503768,38.6833724 C7.66691562,38.1602177 7.02559651,37.8414155 6.338,37.8 L6.338,37.8 Z" id="Path" fill="url(#linearGradient-3)"></path>
                                <path d="M44,7 L14,7 C13.4477153,7 13,6.55228475 13,6 C13,5.44771525 13.4477153,5 14,5 L44,5 C44.5522847,5 45,5.44771525 45,6 C45,6.55228475 44.5522847,7 44,7 Z" id="Path" fill="#313840"></path>
                                <path d="M30,23 L14,23 C13.4477153,23 13,22.5522847 13,22 C13,21.4477153 13.4477153,21 14,21 L30,21 C30.5522847,21 31,21.4477153 31,22 C31,22.5522847 30.5522847,23 30,23 Z" id="Path" fill="#313840"></path>
                                <path d="M44,39 L14,39 C13.4477153,39 13,38.5522847 13,38 C13,37.4477153 13.4477153,37 14,37 L44,37 C44.5522847,37 45,37.4477153 45,38 C45,38.5522847 44.5522847,39 44,39 Z" id="Path" fill="#313840"></path>
                            </g>
                        </g>
                    </g>
                </g>
            </g>
        </g>
    </g>
</svg>