<svg xmlns="http://www.w3.org/2000/svg" width="46" height="44" viewBox="0 0 46 44">
    <g fill="none" fill-rule="nonzero">
        <path fill="#313840" d="M41.75 19.75v24H4.25v-24h-4v-6.027l6-7V.25h33.5v6.473l6 7v6.027h-4zm-3.095-12H7.345L1.75 14.277v3.973h42.5v-3.973L38.655 7.75zM7.75 6.25h30.5v-4.5H7.75v4.5zm32.5 13.5H5.75v22.5h34.5v-22.5z"/>
        <path fill="#95E" d="M30.05 22.25v16.9h-1.5v-4.9h-3.5V25.8a3.55 3.55 0 0 1 3.55-3.55h1.45zm-12 8.42a3.551 3.551 0 0 1-2.8-3.47v-1.4a3.55 3.55 0 1 1 7.1 0v1.4a3.55 3.55 0 0 1-2.8 3.47v8.48h-1.5v-8.48zm.75-1.42a2.05 2.05 0 0 0 2.05-2.05v-1.4a2.05 2.05 0 0 0-4.1 0v1.4a2.05 2.05 0 0 0 2.05 2.05zm9.75-5.5a2.05 2.05 0 0 0-2 2.05v6.95h2v-9z"/>
    </g>
</svg>
