<svg xmlns="http://www.w3.org/2000/svg" width="24" height="24" viewBox="0 0 24 24">
    <path fill="currentColor" fill-rule="evenodd" d="M19.023 4.881a10.212 10.212 0 0 1 .096.096l.305.306-.008.008a10 10 0 0 1 0 13.418l.008.008-.305.306a10.217 10.217 0 0 1-.096.096l-.306.305-.008-.008a10 10 0 0 1-13.418 0l-.008.008-.306-.305a10.21 10.21 0 0 1-.096-.096l-.305-.306.008-.008a10 10 0 0 1 0-13.418l-.008-.008.305-.306a10.212 10.212 0 0 1 .096-.096l.306-.305.008.008a10 10 0 0 1 13.418 0l.008-.008.306.305zM18.708 6l-3.14 3.14-.707-.707 3.14-3.14a9.001 9.001 0 0 0-12.002 0l3.14 3.14-.707.707-3.14-3.14a9.001 9.001 0 0 0 0 12.002l3.14-3.14.707.707-3.14 3.14a9.001 9.001 0 0 0 12.002 0l-3.14-3.14.707-.707 3.14 3.14a9.001 9.001 0 0 0 0-12.002zm-4.2 8.508a3.545 3.545 0 1 0-5.015-5.014 3.545 3.545 0 0 0 5.014 5.014zm.706.707a4.545 4.545 0 1 1-6.428-6.428 4.545 4.545 0 0 1 6.428 6.428z"/>
</svg>
