<svg xmlns="http://www.w3.org/2000/svg" xmlns:xlink="http://www.w3.org/1999/xlink" width="24" height="24" viewBox="0 0 24 24">
    <defs>
        <path id="a" d="M11.5 8.318v6.736h-1v-6.74l-2.496 2.503-.708-.706 3.7-3.711 3.714 3.71-.707.708-2.503-2.5zM7 15v1H4.5a4.5 4.5 0 0 1-1.496-8.745 7.5 7.5 0 0 1 14.981-.23A4.5 4.5 0 0 1 17.5 16H15v-1h2.5a3.5 3.5 0 0 0 .379-6.98l-.84-.09-.052-.842a6.5 6.5 0 0 0-12.984.199l-.022.683-.645.228A3.502 3.502 0 0 0 4.5 15H7z"/>
    </defs>
    <g fill="currentColor" fill-rule="evenodd" transform="translate(1 4)">
        <mask id="b" fill="#fff">
            <use xlink:href="#a"/>
        </mask>
        <use fill="currentColor" fill-rule="nonzero" xlink:href="#a"/>
        <g fill="transparent" mask="url(#b)">
            <path d="M2-4h18a3 3 0 0 1 3 3v18a3 3 0 0 1-3 3H2a3 3 0 0 1-3-3V-1a3 3 0 0 1 3-3z"/>
        </g>
    </g>
</svg>
