<svg xmlns="http://www.w3.org/2000/svg" xmlns:xlink="http://www.w3.org/1999/xlink" width="24" height="24" viewBox="0 0 24 24">
    <defs>
        <path id="a" d="M12.76 21.95l.348.352-.702.698-.349-.352a49.56 49.56 0 0 1-1.253-1.342 52.012 52.012 0 0 1-2.746-3.312c-.983-1.296-1.827-2.556-2.489-3.752C4.556 12.412 4 10.792 4 9.421 4 4.51 7.889 1 12.408 1c4.52 0 8.409 3.51 8.409 8.42 0 1.716-.867 3.817-2.401 6.212l-.267.417-.833-.535.267-.417c1.44-2.249 2.244-4.198 2.244-5.676 0-4.339-3.424-7.43-7.419-7.43-3.994 0-7.419 3.091-7.419 7.43 0 1.17.506 2.645 1.445 4.341.637 1.15 1.455 2.372 2.411 3.633a51.036 51.036 0 0 0 3.914 4.556zm9.54-6.295l.7.7-5.646 5.654-2.677-2.682.699-.7 1.978 1.981 4.947-4.953zm-9.892-2.767a3.465 3.465 0 0 1-3.462-3.467 3.465 3.465 0 0 1 3.462-3.468 3.465 3.465 0 0 1 3.463 3.468 3.465 3.465 0 0 1-3.463 3.467zm0-.99a2.475 2.475 0 0 0 2.473-2.477 2.475 2.475 0 0 0-2.473-2.477 2.475 2.475 0 0 0-2.473 2.477 2.475 2.475 0 0 0 2.473 2.476z"/>
    </defs>
    <g fill="currentColor" fill-rule="evenodd">
        <mask id="b" fill="currentColor">
            <use xlink:href="#a"/>
        </mask>
        <use fill="currentColor" fill-rule="nonzero" xlink:href="#a"/>
        <g fill="transparent" mask="url(#b)">
            <rect width="24" height="24" rx="3"/>
        </g>
    </g>
</svg>
